OmeBhatkhandeBangla.ufo
<glyph name="numbersign" format="1">
  <advance width="7"/>
  <unicode hex="0023"/>
  <outline>
    <contour>
      <point x="4273" y="-1200" type="qcurve"/>
      <point x="4351" y="-1200" type="line"/>
      <point x="4189" y="-1350"/>
      <point x="3973" y="-1451" type="qcurve" smooth="yes"/>
      <point x="3664" y="-1594"/>
      <point x="2826" y="-1750"/>
      <point x="2376" y="-1750" type="qcurve" smooth="yes"/>
      <point x="1718" y="-1750"/>
      <point x="631" y="-1445"/>
      <point x="396" y="-1200" type="qcurve"/>
      <point x="486" y="-1200" type="line"/>
      <point x="631" y="-1322"/>
      <point x="1133" y="-1479"/>
      <point x="1903" y="-1557"/>
      <point x="2321" y="-1557" type="qcurve" smooth="yes"/>
      <point x="2776" y="-1557"/>
      <point x="3148" y="-1524" type="qcurve" smooth="yes"/>
      <point x="3441" y="-1498"/>
      <point x="3796" y="-1425"/>
      <point x="4123" y="-1300"/>
    </contour>
  </outline>
</glyph>
<glyph name="quotesingle" format="1">
  <advance width="1582"/>
  <unicode hex="0027"/>
  <outline>
    <contour>
      <point x="230" y="1384" type="line"/>
      <point x="1030" y="1384" type="line"/>
      <point x="1222" y="1384" type="line"/>
      <point x="1298" y="1376" type="line"/>
      <point x="1322" y="1344" type="line"/>
      <point x="1354" y="1272" type="line"/>
      <point x="1174" y="1272" type="line"/>
      <point x="1174" y="4" type="line"/>
      <point x="1158" y="12" type="line" smooth="yes"/>
      <point x="1130" y="28"/>
      <point x="1118" y="48" type="qcurve" smooth="yes"/>
      <point x="1114" y="64" type="line"/>
      <point x="1110" y="80" type="line"/>
      <point x="1106" y="96" type="line"/>
      <point x="1082" y="176" type="line" smooth="yes"/>
      <point x="1054" y="260"/>
      <point x="966" y="352" type="qcurve" smooth="yes"/>
      <point x="830" y="492"/>
      <point x="638" y="584" type="qcurve"/>
      <point x="502" y="632" type="line"/>
      <point x="474" y="640" type="line"/>
      <point x="470" y="640" type="line"/>
      <point x="466" y="640" type="line"/>
      <point x="462" y="644" type="line"/>
      <point x="422" y="656" type="line"/>
      <point x="398" y="688" type="line"/>
      <point x="382" y="708" type="line"/>
      <point x="362" y="740" type="line"/>
      <point x="322" y="808" type="line"/>
      <point x="582" y="976"/>
      <point x="754" y="1060" type="qcurve" smooth="yes"/>
      <point x="942" y="1136" type="line"/>
      <point x="974" y="1148" type="line"/>
      <point x="990" y="1152" type="line"/>
      <point x="1038" y="1172" type="line" smooth="yes"/>
      <point x="1054" y="1184"/>
      <point x="1054" y="1228" type="qcurve" smooth="yes"/>
      <point x="1054" y="1232" type="line"/>
      <point x="1054" y="1236" type="line"/>
      <point x="1054" y="1240" type="line"/>
      <point x="1050" y="1248" type="line"/>
      <point x="1050" y="1272" type="line"/>
      <point x="506" y="1272" type="line"/>
      <point x="354" y="1272" type="line"/>
      <point x="286" y="1276" type="line"/>
      <point x="262" y="1312" type="line"/>
    </contour>
    <contour>
      <point x="542" y="764" type="line"/>
      <point x="606" y="752"/>
      <point x="698" y="688" type="qcurve" smooth="yes"/>
      <point x="786" y="636"/>
      <point x="874" y="552" type="qcurve" smooth="yes"/>
      <point x="962" y="468"/>
      <point x="1050" y="352" type="qcurve"/>
      <point x="1050" y="1016" type="line"/>
      <point x="854" y="948"/>
      <point x="686" y="852" type="qcurve" smooth="yes"/>
      <point x="638" y="828" type="line"/>
      <point x="582" y="796" type="line"/>
    </contour>
    <contour>
      <point x="550" y="392" type="qcurve" smooth="yes"/>
      <point x="574" y="396" type="line"/>
      <point x="602" y="392" type="line" smooth="yes"/>
      <point x="682" y="376"/>
      <point x="690" y="280" type="qcurve" smooth="yes"/>
      <point x="690" y="188"/>
      <point x="598" y="168" type="qcurve" smooth="yes"/>
      <point x="574" y="164" type="line"/>
      <point x="546" y="168" type="line" smooth="yes"/>
      <point x="466" y="184"/>
      <point x="458" y="280" type="qcurve" smooth="yes"/>
      <point x="458" y="372"/>
    </contour>
  </outline>
</glyph>
<glyph name="zero" format="1">
  <advance width="1582"/>
  <unicode hex="0030"/>
  <outline>
    <contour>
      <point x="748" y="1200" type="qcurve" smooth="yes"/>
      <point x="840" y="1204"/>
      <point x="936" y="1180" type="qcurve" smooth="yes"/>
      <point x="1052" y="1144"/>
      <point x="1148" y="1056" type="qcurve" smooth="yes"/>
      <point x="1300" y="908"/>
      <point x="1300" y="688" type="qcurve" smooth="yes"/>
      <point x="1300" y="520"/>
      <point x="1196" y="388" type="qcurve" smooth="yes"/>
      <point x="1140" y="312"/>
      <point x="1060" y="264" type="qcurve" smooth="yes"/>
      <point x="964" y="208"/>
      <point x="840" y="188" type="qcurve" smooth="yes"/>
      <point x="748" y="184"/>
      <point x="652" y="208" type="qcurve" smooth="yes"/>
      <point x="536" y="244"/>
      <point x="440" y="332" type="qcurve" smooth="yes"/>
      <point x="288" y="480"/>
      <point x="288" y="700" type="qcurve" smooth="yes"/>
      <point x="288" y="868"/>
      <point x="392" y="1000" type="qcurve" smooth="yes"/>
      <point x="448" y="1076"/>
      <point x="528" y="1124" type="qcurve" smooth="yes"/>
      <point x="624" y="1180"/>
    </contour>
    <contour>
      <point x="1100" y="760" type="qcurve" smooth="yes"/>
      <point x="1120" y="896"/>
      <point x="1008" y="968" type="qcurve" smooth="yes"/>
      <point x="1004" y="972"/>
      <point x="1004" y="972" type="qcurve"/>
      <point x="960" y="992" type="line" smooth="yes"/>
      <point x="900" y="1016"/>
      <point x="828" y="996" type="qcurve" smooth="yes"/>
      <point x="636" y="944"/>
      <point x="532" y="764" type="qcurve" smooth="yes"/>
      <point x="492" y="696"/>
      <point x="484" y="624" type="qcurve" smooth="yes"/>
      <point x="468" y="492"/>
      <point x="580" y="420" type="qcurve" smooth="yes"/>
      <point x="628" y="396" type="line" smooth="yes"/>
      <point x="688" y="372"/>
      <point x="760" y="392" type="qcurve" smooth="yes"/>
      <point x="948" y="444"/>
      <point x="1052" y="624" type="qcurve" smooth="yes"/>
      <point x="1092" y="692"/>
    </contour>
  </outline>
</glyph>
<glyph name="one" format="1">
  <advance width="307"/>
  <unicode hex="0031"/>
  <outline>
    <contour>
      <point x="795.5" y="112.5" type="qcurve"/>
      <point x="835.5" y="200.5"/>
      <point x="839.5" y="248.5" type="qcurve" smooth="yes"/>
      <point x="855.5" y="440.5"/>
      <point x="579.5" y="608.5" type="qcurve"/>
      <point x="575.5" y="608.5" type="line"/>
      <point x="459.5" y="676.5" type="line"/>
      <point x="363.5" y="736.5" type="line" smooth="yes"/>
      <point x="203.5" y="852.5"/>
      <point x="179.5" y="980.5" type="qcurve" smooth="yes"/>
      <point x="167.5" y="1056.5"/>
      <point x="195.5" y="1104.5" type="qcurve" smooth="yes"/>
      <point x="231.5" y="1168.5"/>
      <point x="307.5" y="1168.5" type="qcurve" smooth="yes"/>
      <point x="367.5" y="1168.5"/>
      <point x="403.5" y="1124.5" type="qcurve" smooth="yes"/>
      <point x="435.5" y="1088.5"/>
      <point x="439.5" y="1036.5" type="qcurve" smooth="yes"/>
      <point x="431.5" y="992.5" type="line"/>
      <point x="419.5" y="964.5" type="line"/>
      <point x="407.5" y="932.5" type="line"/>
      <point x="415.5" y="912.5" type="line"/>
      <point x="431.5" y="880.5" type="line"/>
      <point x="447.5" y="852.5" type="line" smooth="yes"/>
      <point x="503.5" y="776.5"/>
      <point x="647.5" y="668.5" type="qcurve"/>
      <point x="655.5" y="664.5" type="line"/>
      <point x="659.5" y="660.5" type="line" smooth="yes"/>
      <point x="727.5" y="608.5"/>
      <point x="763.5" y="576.5" type="qcurve" smooth="yes"/>
      <point x="903.5" y="456.5"/>
      <point x="919.5" y="324.5" type="qcurve" smooth="yes"/>
      <point x="923.5" y="264.5"/>
      <point x="911.5" y="196.5" type="qcurve" smooth="yes"/>
      <point x="867.5" y="-47.5"/>
      <point x="659.5" y="-167.5" type="qcurve" smooth="yes"/>
      <point x="587.5" y="-203.5" type="line" smooth="yes"/>
      <point x="531.5" y="-223.5"/>
      <point x="475.5" y="-227.5" type="qcurve" smooth="yes"/>
      <point x="359.5" y="-235.5"/>
      <point x="315.5" y="-155.5" type="qcurve" smooth="yes"/>
      <point x="307.5" y="-135.5" type="line"/>
      <point x="303.5" y="-115.5" type="line"/>
      <point x="299.5" y="-87.5" type="line"/>
      <point x="303.5" y="-59.5" type="line" smooth="yes"/>
      <point x="327.5" y="92.5"/>
      <point x="499.5" y="168.5" type="qcurve" smooth="yes"/>
      <point x="527.5" y="180.5"/>
      <point x="555.5" y="188.5" type="qcurve" smooth="yes"/>
      <point x="567.5" y="188.5"/>
      <point x="579.5" y="192.5" type="qcurve" smooth="yes"/>
      <point x="647.5" y="196.5" type="line"/>
      <point x="651.5" y="196.5" type="line" smooth="yes"/>
      <point x="715.5" y="192.5"/>
      <point x="755.5" y="160.5" type="qcurve" smooth="yes"/>
      <point x="775.5" y="144.5"/>
    </contour>
  </outline>
</glyph>
<glyph name="two" format="1">
  <advance width="307"/>
  <unicode hex="0032"/>
  <outline>
    <contour>
      <point x="57" y="474.5" type="line"/>
      <point x="169" y="410.5" type="line"/>
      <point x="177" y="402.5" type="line"/>
      <point x="257" y="354.5" type="line" smooth="yes"/>
      <point x="341" y="314.5"/>
      <point x="449" y="310.5" type="qcurve" smooth="yes"/>
      <point x="461" y="310.5" type="line"/>
      <point x="601" y="318.5" type="line"/>
      <point x="633" y="326.5" type="line" smooth="yes"/>
      <point x="773" y="362.5"/>
      <point x="781" y="466.5" type="qcurve" smooth="yes"/>
      <point x="781" y="494.5" type="line"/>
      <point x="777" y="522.5" type="line"/>
      <point x="769" y="542.5" type="line" smooth="yes"/>
      <point x="761" y="562.5"/>
      <point x="753" y="574.5" type="qcurve" smooth="yes"/>
      <point x="701" y="662.5"/>
      <point x="521" y="730.5" type="qcurve"/>
      <point x="517" y="734.5" type="line" smooth="yes"/>
      <point x="521" y="734.5"/>
      <point x="477" y="750.5" type="qcurve" smooth="yes"/>
      <point x="397" y="782.5" type="line" smooth="yes"/>
      <point x="309" y="826.5"/>
      <point x="269" y="874.5" type="qcurve" smooth="yes"/>
      <point x="233" y="918.5"/>
      <point x="229" y="978.5" type="qcurve" smooth="yes"/>
      <point x="217" y="1082.5"/>
      <point x="305" y="1122.5" type="qcurve" smooth="yes"/>
      <point x="325" y="1130.5" type="line"/>
      <point x="349" y="1134.5" type="line"/>
      <point x="405" y="1126.5" type="line"/>
      <point x="493" y="1086.5"/>
      <point x="489" y="990.5" type="qcurve"/>
      <point x="477" y="942.5" type="line"/>
      <point x="469" y="926.5" type="line"/>
      <point x="465" y="910.5" type="line"/>
      <point x="489" y="870.5" type="line"/>
      <point x="497" y="858.5" type="line" smooth="yes"/>
      <point x="541" y="814.5"/>
      <point x="645" y="746.5" type="qcurve"/>
      <point x="645" y="746.5" type="line"/>
      <point x="781" y="662.5"/>
      <point x="825" y="594.5" type="qcurve" smooth="yes"/>
      <point x="865" y="538.5"/>
      <point x="861" y="466.5" type="qcurve" smooth="yes"/>
      <point x="857" y="378.5"/>
      <point x="801" y="306.5" type="qcurve" smooth="yes"/>
      <point x="729" y="210.5"/>
      <point x="593" y="170.5" type="qcurve" smooth="yes"/>
      <point x="557" y="162.5"/>
      <point x="525" y="158.5" type="qcurve"/>
      <point x="697" y="10.5" type="line"/>
      <point x="905" y="-197.5" type="line"/>
      <point x="1049" y="-361.5" type="line"/>
      <point x="1081" y="-437.5" type="line"/>
      <point x="953" y="-333.5" type="line"/>
      <point x="945" y="-329.5" type="line"/>
      <point x="889" y="-281.5" type="line" smooth="yes"/>
      <point x="697" y="-129.5"/>
      <point x="521" y="-13.5" type="qcurve" smooth="yes"/>
      <point x="281" y="134.5" type="line"/>
      <point x="245" y="154.5" type="line"/>
      <point x="209" y="174.5" type="line" smooth="yes"/>
      <point x="177" y="190.5"/>
      <point x="165" y="206.5" type="qcurve" smooth="yes"/>
      <point x="137" y="270.5" type="line"/>
      <point x="133" y="274.5" type="line"/>
      <point x="133" y="278.5" type="line"/>
      <point x="125" y="302.5" type="line"/>
    </contour>
  </outline>
</glyph>
<glyph name="three" format="1">
  <advance width="307"/>
  <unicode hex="0033"/>
  <outline>
    <contour>
      <point x="623.5" y="753" type="line"/>
      <point x="667.5" y="689" type="line" smooth="yes"/>
      <point x="691.5" y="645"/>
      <point x="691.5" y="593" type="qcurve" smooth="yes"/>
      <point x="691.5" y="537"/>
      <point x="663.5" y="493" type="qcurve" smooth="yes"/>
      <point x="611.5" y="397"/>
      <point x="495.5" y="397" type="qcurve" smooth="yes"/>
      <point x="355.5" y="397"/>
      <point x="311.5" y="517" type="qcurve" smooth="yes"/>
      <point x="291.5" y="561"/>
      <point x="295.5" y="613" type="qcurve" smooth="yes"/>
      <point x="299.5" y="769"/>
      <point x="431.5" y="853" type="qcurve" smooth="yes"/>
      <point x="487.5" y="889"/>
      <point x="567.5" y="901" type="qcurve" smooth="yes"/>
      <point x="599.5" y="905"/>
      <point x="635.5" y="901" type="qcurve" smooth="yes"/>
      <point x="859.5" y="877"/>
      <point x="975.5" y="637" type="qcurve"/>
      <point x="1007.5" y="549" type="line" smooth="yes"/>
      <point x="1039.5" y="441"/>
      <point x="999.5" y="109" type="qcurve"/>
      <point x="1039.5" y="325" type="line"/>
      <point x="1039.5" y="209"/>
      <point x="999.5" y="109" type="qcurve" smooth="yes"/>
      <point x="919.5" y="-91"/>
      <point x="731.5" y="-147" type="qcurve" smooth="yes"/>
      <point x="643.5" y="-175"/>
      <point x="555.5" y="-155" type="qcurve" smooth="yes"/>
      <point x="511.5" y="-143"/>
      <point x="455.5" y="-111" type="qcurve" smooth="yes"/>
      <point x="339.5" y="-47"/>
      <point x="243.5" y="125" type="qcurve" smooth="yes"/>
      <point x="231.5" y="145"/>
      <point x="219.5" y="165" type="qcurve" smooth="yes"/>
      <point x="151.5" y="281"/>
      <point x="75.5" y="477" type="qcurve" smooth="yes"/>
      <point x="31.5" y="581" type="line" smooth="yes"/>
      <point x="23.5" y="601"/>
      <point x="-52.5" y="789" type="qcurve" smooth="yes"/>
      <point x="-0.5" y="653" type="line"/>
      <point x="-52.5" y="789" type="line"/>
      <point x="-24.5" y="777" type="line" smooth="yes"/>
      <point x="-0.5" y="769"/>
      <point x="11.5" y="757" type="qcurve" smooth="yes"/>
      <point x="31.5" y="745"/>
      <point x="47.5" y="709" type="qcurve" smooth="yes"/>
      <point x="59.5" y="685" type="line"/>
      <point x="95.5" y="609" type="line"/>
      <point x="127.5" y="537" type="line"/>
      <point x="195.5" y="385" type="line" smooth="yes"/>
      <point x="347.5" y="77"/>
      <point x="543.5" y="25" type="qcurve"/>
      <point x="595.5" y="17" type="line" smooth="yes"/>
      <point x="647.5" y="9"/>
      <point x="703.5" y="29" type="qcurve" smooth="yes"/>
      <point x="791.5" y="65" type="line"/>
      <point x="979.5" y="185"/>
      <point x="955.5" y="433" type="qcurve" smooth="yes"/>
      <point x="951.5" y="473"/>
      <point x="939.5" y="513" type="qcurve" smooth="yes"/>
      <point x="935.5" y="529" type="line" smooth="yes"/>
      <point x="891.5" y="689"/>
      <point x="767.5" y="741" type="qcurve" smooth="yes"/>
      <point x="735.5" y="753" type="line"/>
      <point x="679.5" y="761" type="line"/>
      <point x="643.5" y="757" type="line"/>
    </contour>
  </outline>
</glyph>
<glyph name="four" format="1">
  <advance width="1582"/>
  <unicode hex="0034"/>
  <outline>
    <contour>
      <point x="690" y="664" type="qcurve"/>
      <point x="494" y="736"/>
      <point x="438" y="904" type="qcurve" smooth="yes"/>
      <point x="418" y="960"/>
      <point x="422" y="1024" type="qcurve" smooth="yes"/>
      <point x="442" y="1104" type="line" smooth="yes"/>
      <point x="462" y="1156"/>
      <point x="494" y="1188" type="qcurve" smooth="yes"/>
      <point x="538" y="1240"/>
      <point x="590" y="1268" type="qcurve" smooth="yes"/>
      <point x="666" y="1312"/>
      <point x="742" y="1324" type="qcurve" smooth="yes"/>
      <point x="846" y="1328" type="line"/>
      <point x="1070" y="1308"/>
      <point x="1154" y="1148" type="qcurve" smooth="yes"/>
      <point x="1170" y="1116"/>
      <point x="1178" y="1080" type="qcurve" smooth="yes"/>
      <point x="1186" y="1040" type="line"/>
      <point x="1186" y="1000" type="line" smooth="yes"/>
      <point x="1182" y="952"/>
      <point x="1162" y="904" type="qcurve" smooth="yes"/>
      <point x="1126" y="820"/>
      <point x="998" y="736" type="qcurve"/>
      <point x="998" y="736" type="line"/>
      <point x="966" y="716" type="line"/>
      <point x="1078" y="668"/>
      <point x="1146" y="576" type="qcurve" smooth="yes"/>
      <point x="1214" y="488"/>
      <point x="1214" y="400" type="qcurve" smooth="yes"/>
      <point x="1202" y="308" type="line"/>
      <point x="1142" y="116"/>
      <point x="906" y="68" type="qcurve" smooth="yes"/>
      <point x="862" y="60"/>
      <point x="818" y="60" type="qcurve" smooth="yes"/>
      <point x="674" y="60"/>
      <point x="566" y="124" type="qcurve" smooth="yes"/>
      <point x="414" y="220"/>
      <point x="422" y="376" type="qcurve" smooth="yes"/>
      <point x="426" y="396"/>
      <point x="430" y="416" type="qcurve" smooth="yes"/>
      <point x="446" y="460" type="line" smooth="yes"/>
      <point x="462" y="504"/>
      <point x="494" y="532" type="qcurve" smooth="yes"/>
      <point x="538" y="580"/>
      <point x="646" y="640" type="qcurve"/>
      <point x="650" y="640" type="line"/>
      <point x="674" y="656"/>
    </contour>
    <contour>
      <point x="558" y="1012" type="qcurve" smooth="yes"/>
      <point x="578" y="880"/>
      <point x="758" y="800" type="qcurve"/>
      <point x="762" y="800" type="line"/>
      <point x="770" y="796" type="line"/>
      <point x="798" y="780" type="line"/>
      <point x="830" y="768" type="line"/>
      <point x="870" y="764" type="line" smooth="yes"/>
      <point x="890" y="768"/>
      <point x="922" y="792" type="qcurve"/>
      <point x="898" y="772"/>
      <point x="946" y="812" type="qcurve" smooth="yes"/>
      <point x="1066" y="924"/>
      <point x="1046" y="1044" type="qcurve" smooth="yes"/>
      <point x="1026" y="1188"/>
      <point x="890" y="1244" type="qcurve" smooth="yes"/>
      <point x="846" y="1260"/>
      <point x="798" y="1260" type="qcurve" smooth="yes"/>
      <point x="790" y="1260" type="line" smooth="yes"/>
      <point x="650" y="1252"/>
      <point x="582" y="1136" type="qcurve" smooth="yes"/>
      <point x="550" y="1076"/>
    </contour>
    <contour>
      <point x="562" y="332" type="qcurve" smooth="yes"/>
      <point x="582" y="196"/>
      <point x="726" y="144" type="qcurve" smooth="yes"/>
      <point x="770" y="128"/>
      <point x="818" y="128" type="qcurve" smooth="yes"/>
      <point x="878" y="136" type="line" smooth="yes"/>
      <point x="1018" y="160"/>
      <point x="1066" y="284" type="qcurve" smooth="yes"/>
      <point x="1078" y="324"/>
      <point x="1074" y="368" type="qcurve" smooth="yes"/>
      <point x="1074" y="376" type="line" smooth="yes"/>
      <point x="1062" y="500"/>
      <point x="878" y="588" type="qcurve" smooth="yes"/>
      <point x="866" y="592"/>
      <point x="842" y="604" type="qcurve" smooth="yes"/>
      <point x="838" y="604" type="line"/>
      <point x="830" y="608" type="line"/>
      <point x="786" y="620" type="line"/>
      <point x="758" y="612" type="line"/>
      <point x="754" y="608" type="line"/>
      <point x="726" y="592" type="line"/>
      <point x="702" y="576" type="line" smooth="yes"/>
      <point x="546" y="468"/>
    </contour>
  </outline>
</glyph>
<glyph name="five" format="1">
  <advance width="307"/>
  <unicode hex="0035"/>
  <outline>
    <contour>
      <point x="880.5" y="-195.5" type="line"/>
      <point x="752.5" y="-263.5"/>
      <point x="592.5" y="-255.5" type="qcurve" smooth="yes"/>
      <point x="308.5" y="-243.5"/>
      <point x="152.5" y="-43.5" type="qcurve" smooth="yes"/>
      <point x="88.5" y="36.5"/>
      <point x="64.5" y="136.5" type="qcurve" smooth="yes"/>
      <point x="52.5" y="248.5" type="line" smooth="yes"/>
      <point x="52.5" y="328.5"/>
      <point x="72.5" y="416.5" type="qcurve" smooth="yes"/>
      <point x="148.5" y="720.5"/>
      <point x="412.5" y="892.5" type="qcurve" smooth="yes"/>
      <point x="572.5" y="996.5"/>
      <point x="748.5" y="1004.5" type="qcurve"/>
      <point x="748.5" y="972.5" type="line" smooth="yes"/>
      <point x="752.5" y="760.5"/>
      <point x="860.5" y="664.5" type="qcurve"/>
      <point x="924.5" y="624.5" type="line" smooth="yes"/>
      <point x="960.5" y="604.5"/>
      <point x="1008.5" y="596.5" type="qcurve"/>
      <point x="1008.5" y="588.5" type="line"/>
      <point x="780.5" y="552.5"/>
      <point x="656.5" y="332.5" type="qcurve" smooth="yes"/>
      <point x="616.5" y="268.5"/>
      <point x="600.5" y="196.5" type="qcurve" smooth="yes"/>
      <point x="584.5" y="100.5" type="line" smooth="yes"/>
      <point x="580.5" y="28.5"/>
      <point x="604.5" y="-19.5" type="qcurve" smooth="yes"/>
      <point x="644.5" y="-87.5"/>
      <point x="708.5" y="-111.5" type="qcurve" smooth="yes"/>
      <point x="744.5" y="-123.5" type="line"/>
      <point x="784.5" y="-135.5" type="line"/>
      <point x="856.5" y="-175.5" type="line"/>
      <point x="880.5" y="-191.5" type="line"/>
    </contour>
    <contour>
      <point x="636.5" y="-183.5" type="qcurve"/>
      <point x="512.5" y="-79.5"/>
      <point x="476.5" y="28.5" type="qcurve" smooth="yes"/>
      <point x="444.5" y="112.5"/>
      <point x="448.5" y="208.5" type="qcurve" smooth="yes"/>
      <point x="464.5" y="444.5"/>
      <point x="632.5" y="552.5" type="qcurve"/>
      <point x="712.5" y="588.5" type="line"/>
      <point x="712.5" y="596.5" type="line"/>
      <point x="592.5" y="632.5"/>
      <point x="572.5" y="776.5" type="qcurve" smooth="yes"/>
      <point x="568.5" y="788.5"/>
      <point x="568.5" y="796.5" type="qcurve" smooth="yes"/>
      <point x="568.5" y="812.5" type="line"/>
      <point x="440.5" y="744.5" type="line"/>
      <point x="276.5" y="636.5"/>
      <point x="204.5" y="456.5" type="qcurve" smooth="yes"/>
      <point x="172.5" y="372.5"/>
      <point x="164.5" y="288.5" type="qcurve" smooth="yes"/>
      <point x="148.5" y="96.5"/>
      <point x="256.5" y="-35.5" type="qcurve" smooth="yes"/>
      <point x="280.5" y="-67.5"/>
      <point x="328.5" y="-103.5" type="qcurve" smooth="yes"/>
      <point x="372.5" y="-143.5"/>
      <point x="440.5" y="-163.5" type="qcurve" smooth="yes"/>
      <point x="512.5" y="-191.5"/>
    </contour>
  </outline>
</glyph>
<glyph name="six" format="1">
  <advance width="307"/>
  <unicode hex="0036"/>
  <outline>
    <contour>
      <point x="349" y="718.5" type="line"/>
      <point x="289" y="718.5"/>
      <point x="249" y="742.5" type="qcurve" smooth="yes"/>
      <point x="225" y="762.5"/>
      <point x="213" y="782.5" type="qcurve" smooth="yes"/>
      <point x="197" y="822.5" type="line" smooth="yes"/>
      <point x="177" y="914.5"/>
      <point x="261" y="962.5" type="qcurve" smooth="yes"/>
      <point x="309" y="994.5"/>
      <point x="369" y="974.5" type="qcurve" smooth="yes"/>
      <point x="437" y="950.5"/>
      <point x="457" y="878.5" type="qcurve" smooth="yes"/>
      <point x="461" y="846.5" type="line"/>
      <point x="465" y="814.5" type="line"/>
      <point x="489" y="530.5" type="line"/>
      <point x="489" y="514.5" type="line"/>
      <point x="489" y="510.5" type="line"/>
      <point x="493" y="466.5" type="line"/>
      <point x="493" y="462.5" type="line"/>
      <point x="497" y="458.5" type="line"/>
      <point x="505" y="394.5"/>
      <point x="545" y="382.5" type="qcurve"/>
      <point x="581" y="386.5" type="line"/>
      <point x="593" y="390.5" type="line"/>
      <point x="673" y="446.5" type="line"/>
      <point x="757" y="526.5" type="line"/>
      <point x="781" y="550.5" type="line" smooth="yes"/>
      <point x="845" y="626.5"/>
      <point x="857" y="682.5" type="qcurve"/>
      <point x="937" y="642.5"/>
      <point x="1001" y="538.5" type="qcurve" smooth="yes"/>
      <point x="1077" y="418.5"/>
      <point x="1077" y="266.5" type="qcurve" smooth="yes"/>
      <point x="1077" y="2.5"/>
      <point x="885" y="-137.5" type="qcurve" smooth="yes"/>
      <point x="849" y="-165.5"/>
      <point x="809" y="-181.5" type="qcurve" smooth="yes"/>
      <point x="729" y="-205.5" type="line"/>
      <point x="689" y="-213.5" type="line"/>
      <point x="581" y="-209.5" type="line"/>
      <point x="405" y="-181.5"/>
      <point x="277" y="6.5" type="qcurve" smooth="yes"/>
      <point x="197" y="126.5"/>
      <point x="113" y="382.5" type="qcurve"/>
      <point x="109" y="386.5" type="line"/>
      <point x="101" y="406.5" type="line" smooth="yes"/>
      <point x="77" y="482.5"/>
      <point x="61" y="526.5" type="qcurve" smooth="yes"/>
      <point x="-27" y="766.5" type="line"/>
      <point x="1" y="754.5" type="line" smooth="yes"/>
      <point x="25" y="746.5"/>
      <point x="37" y="734.5" type="qcurve" smooth="yes"/>
      <point x="61" y="690.5" type="line" smooth="yes"/>
      <point x="61" y="694.5"/>
      <point x="69" y="674.5" type="qcurve" smooth="yes"/>
      <point x="77" y="654.5" type="line"/>
      <point x="141" y="482.5" type="line"/>
      <point x="193" y="358.5" type="line" smooth="yes"/>
      <point x="317" y="70.5"/>
      <point x="493" y="-13.5" type="qcurve" smooth="yes"/>
      <point x="565" y="-49.5"/>
      <point x="653" y="-49.5" type="qcurve" smooth="yes"/>
      <point x="853" y="-49.5"/>
      <point x="957" y="106.5" type="qcurve" smooth="yes"/>
      <point x="985" y="146.5"/>
      <point x="997" y="198.5" type="qcurve" smooth="yes"/>
      <point x="1009" y="242.5"/>
      <point x="1009" y="282.5" type="qcurve" smooth="yes"/>
      <point x="1005" y="350.5"/>
      <point x="949" y="434.5" type="qcurve"/>
      <point x="945" y="438.5" type="line"/>
      <point x="929" y="462.5" type="line"/>
      <point x="925" y="462.5" type="line"/>
      <point x="889" y="418.5"/>
      <point x="793" y="346.5" type="qcurve" smooth="yes"/>
      <point x="677" y="266.5" type="line" smooth="yes"/>
      <point x="629" y="234.5"/>
      <point x="593" y="230.5" type="qcurve" smooth="yes"/>
      <point x="509" y="222.5"/>
      <point x="441" y="334.5" type="qcurve" smooth="yes"/>
      <point x="393" y="422.5"/>
      <point x="369" y="586.5" type="qcurve" smooth="yes"/>
      <point x="357" y="650.5" type="line"/>
    </contour>
  </outline>
</glyph>
<glyph name="seven" format="1">
  <advance width="307"/>
  <unicode hex="0037"/>
  <outline>
    <contour>
      <point x="689.5" y="408.5" type="line"/>
      <point x="589.5" y="404.5" type="line"/>
      <point x="577.5" y="404.5" type="line"/>
      <point x="569.5" y="404.5" type="line" smooth="yes"/>
      <point x="545.5" y="404.5"/>
      <point x="525.5" y="404.5" type="qcurve" smooth="yes"/>
      <point x="361.5" y="412.5" type="line" smooth="yes"/>
      <point x="289.5" y="420.5"/>
      <point x="225.5" y="452.5" type="qcurve" smooth="yes"/>
      <point x="173.5" y="480.5"/>
      <point x="145.5" y="516.5" type="qcurve" smooth="yes"/>
      <point x="89.5" y="580.5"/>
      <point x="105.5" y="680.5" type="qcurve" smooth="yes"/>
      <point x="117.5" y="780.5"/>
      <point x="185.5" y="864.5" type="qcurve" smooth="yes"/>
      <point x="281.5" y="988.5"/>
      <point x="441.5" y="988.5" type="qcurve" smooth="yes"/>
      <point x="549.5" y="988.5"/>
      <point x="637.5" y="916.5" type="qcurve" smooth="yes"/>
      <point x="701.5" y="868.5"/>
      <point x="745.5" y="768.5" type="qcurve" smooth="yes"/>
      <point x="793.5" y="656.5"/>
      <point x="813.5" y="508.5" type="qcurve" smooth="yes"/>
      <point x="817.5" y="372.5" type="line"/>
      <point x="817.5" y="304.5" type="line"/>
      <point x="817.5" y="236.5" type="line"/>
      <point x="821.5" y="128.5" type="line"/>
      <point x="821.5" y="16.5" type="line"/>
      <point x="877.5" y="16.5"/>
      <point x="917.5" y="-19.5" type="qcurve" smooth="yes"/>
      <point x="953.5" y="-55.5"/>
      <point x="917.5" y="-211.5" type="qcurve"/>
      <point x="957.5" y="-119.5" type="line"/>
      <point x="953.5" y="-175.5"/>
      <point x="917.5" y="-211.5" type="qcurve" smooth="yes"/>
      <point x="869.5" y="-239.5" type="line"/>
      <point x="845.5" y="-247.5" type="line" smooth="yes"/>
      <point x="773.5" y="-259.5"/>
      <point x="725.5" y="-199.5" type="qcurve" smooth="yes"/>
      <point x="701.5" y="-171.5"/>
      <point x="697.5" y="-139.5" type="qcurve" smooth="yes"/>
      <point x="693.5" y="-103.5" type="line"/>
      <point x="693.5" y="-83.5" type="line"/>
      <point x="693.5" y="-63.5" type="line"/>
      <point x="693.5" y="60.5" type="line"/>
      <point x="693.5" y="104.5" type="line"/>
      <point x="689.5" y="148.5" type="line"/>
    </contour>
    <contour>
      <point x="217.5" y="584.5" type="line" smooth="yes"/>
      <point x="225.5" y="532.5"/>
      <point x="277.5" y="520.5" type="qcurve" smooth="yes"/>
      <point x="325.5" y="516.5" type="line"/>
      <point x="337.5" y="520.5" type="line"/>
      <point x="341.5" y="520.5" type="line"/>
      <point x="369.5" y="520.5" type="line"/>
      <point x="561.5" y="520.5" type="line"/>
      <point x="641.5" y="520.5" type="line"/>
      <point x="653.5" y="520.5" type="line"/>
      <point x="689.5" y="524.5" type="line" smooth="yes"/>
      <point x="713.5" y="532.5"/>
      <point x="713.5" y="568.5" type="qcurve" smooth="yes"/>
      <point x="709.5" y="588.5" type="line"/>
      <point x="697.5" y="644.5" type="line" smooth="yes"/>
      <point x="669.5" y="744.5"/>
      <point x="605.5" y="816.5" type="qcurve" smooth="yes"/>
      <point x="549.5" y="872.5"/>
      <point x="505.5" y="880.5" type="qcurve" smooth="yes"/>
      <point x="461.5" y="888.5"/>
      <point x="401.5" y="860.5" type="qcurve" smooth="yes"/>
      <point x="293.5" y="808.5"/>
      <point x="241.5" y="696.5" type="qcurve" smooth="yes"/>
      <point x="217.5" y="628.5" type="line"/>
    </contour>
  </outline>
</glyph>
<glyph name="eight" format="1">
  <advance width="307"/>
  <unicode hex="0038"/>
  <outline>
    <contour>
      <point x="659" y="405" type="line"/>
      <point x="695" y="461" type="line"/>
      <point x="755" y="521"/>
      <point x="839" y="521" type="qcurve" smooth="yes"/>
      <point x="879" y="521" type="line"/>
      <point x="891" y="517" type="line"/>
      <point x="895" y="517" type="line" smooth="yes"/>
      <point x="959" y="517"/>
      <point x="995" y="533" type="qcurve" smooth="yes"/>
      <point x="1035" y="545"/>
      <point x="1051" y="581" type="qcurve" smooth="yes"/>
      <point x="1059" y="601" type="line"/>
      <point x="1059" y="605" type="line"/>
      <point x="1075" y="641" type="line" smooth="yes"/>
      <point x="1095" y="661"/>
      <point x="1111" y="625" type="qcurve" smooth="yes"/>
      <point x="1115" y="621" type="line"/>
      <point x="1123" y="577" type="line"/>
      <point x="1119" y="529" type="line"/>
      <point x="1095" y="449" type="line"/>
      <point x="1043" y="357"/>
      <point x="919" y="357" type="qcurve" smooth="yes"/>
      <point x="899" y="357" type="line" smooth="yes"/>
      <point x="867" y="361"/>
      <point x="851" y="361" type="qcurve" smooth="yes"/>
      <point x="771" y="361"/>
      <point x="735" y="317" type="qcurve" smooth="yes"/>
      <point x="719" y="301"/>
      <point x="727" y="261" type="qcurve" smooth="yes"/>
      <point x="731" y="253" type="line"/>
      <point x="735" y="233" type="line" smooth="yes"/>
      <point x="739" y="157"/>
      <point x="715" y="81" type="qcurve" smooth="yes"/>
      <point x="651" y="-127"/>
      <point x="447" y="-199" type="qcurve" smooth="yes"/>
      <point x="375" y="-219" type="line" smooth="yes"/>
      <point x="235" y="-247"/>
      <point x="155" y="-171" type="qcurve" smooth="yes"/>
      <point x="83" y="-99"/>
      <point x="83" y="117" type="qcurve" smooth="yes"/>
      <point x="83" y="97" type="line"/>
      <point x="83" y="117" type="line"/>
      <point x="83" y="497" type="line" smooth="yes"/>
      <point x="83" y="517"/>
      <point x="83" y="561" type="qcurve" smooth="yes"/>
      <point x="83" y="689" type="line" smooth="yes"/>
      <point x="79" y="713"/>
      <point x="39" y="729" type="qcurve"/>
      <point x="35" y="729" type="line"/>
      <point x="7" y="741" type="line" smooth="yes"/>
      <point x="-57" y="781"/>
      <point x="-53" y="857" type="qcurve" smooth="yes"/>
      <point x="-49" y="877" type="line" smooth="yes"/>
      <point x="-29" y="969"/>
      <point x="67" y="981" type="qcurve" smooth="yes"/>
      <point x="75" y="981"/>
      <point x="83" y="981" type="qcurve" smooth="yes"/>
      <point x="139" y="981"/>
      <point x="175" y="937" type="qcurve" smooth="yes"/>
      <point x="211" y="897"/>
      <point x="211" y="813" type="qcurve" smooth="yes"/>
      <point x="211" y="809" type="line"/>
      <point x="211" y="805" type="line" smooth="yes"/>
      <point x="211" y="801"/>
      <point x="211" y="793" type="qcurve" smooth="yes"/>
      <point x="211" y="789" type="line"/>
      <point x="211" y="785" type="line"/>
      <point x="211" y="777" type="line"/>
      <point x="211" y="745" type="line"/>
      <point x="211" y="533" type="line"/>
      <point x="211" y="505" type="line"/>
      <point x="215" y="413" type="line"/>
      <point x="235" y="453" type="line"/>
      <point x="239" y="457" type="line"/>
      <point x="251" y="473" type="line" smooth="yes"/>
      <point x="319" y="557"/>
      <point x="435" y="541" type="qcurve" smooth="yes"/>
      <point x="583" y="525"/>
      <point x="655" y="405" type="qcurve"/>
    </contour>
    <contour>
      <point x="631" y="249" type="qcurve" smooth="yes"/>
      <point x="643" y="317"/>
      <point x="563" y="345" type="qcurve" smooth="yes"/>
      <point x="487" y="373"/>
      <point x="403" y="381" type="qcurve" smooth="yes"/>
      <point x="323" y="381" type="line"/>
      <point x="315" y="381" type="line" smooth="yes"/>
      <point x="319" y="381"/>
      <point x="303" y="381" type="qcurve" smooth="yes"/>
      <point x="275" y="377" type="line" smooth="yes"/>
      <point x="219" y="365"/>
      <point x="211" y="337" type="qcurve" smooth="yes"/>
      <point x="211" y="289" type="line"/>
      <point x="211" y="269" type="line"/>
      <point x="211" y="237" type="line"/>
      <point x="211" y="45" type="line" smooth="yes"/>
      <point x="211" y="-47"/>
      <point x="259" y="-79" type="qcurve" smooth="yes"/>
      <point x="283" y="-95"/>
      <point x="315" y="-87" type="qcurve" smooth="yes"/>
      <point x="355" y="-83"/>
      <point x="399" y="-51" type="qcurve" smooth="yes"/>
      <point x="407" y="-47" type="line" smooth="yes"/>
      <point x="503" y="17"/>
      <point x="575" y="125" type="qcurve" smooth="yes"/>
      <point x="619" y="193"/>
    </contour>
  </outline>
</glyph>
<glyph name="nine" format="1">
  <advance width="1582"/>
  <unicode hex="0039"/>
  <outline>
    <contour>
      <point x="1060" y="280" type="line"/>
      <point x="1124" y="308"/>
      <point x="1156" y="340" type="qcurve" smooth="yes"/>
      <point x="1196" y="396" type="line" smooth="yes"/>
      <point x="1224" y="448"/>
      <point x="1224" y="508" type="qcurve" smooth="yes"/>
      <point x="1224" y="668"/>
      <point x="1080" y="784" type="qcurve" smooth="yes"/>
      <point x="984" y="864"/>
      <point x="748" y="920" type="qcurve"/>
      <point x="744" y="924" type="line"/>
      <point x="624" y="952"/>
      <point x="564" y="972" type="qcurve" smooth="yes"/>
      <point x="420" y="1024"/>
      <point x="388" y="1124" type="qcurve"/>
      <point x="376" y="1204" type="line"/>
      <point x="392" y="1252" type="line" smooth="yes"/>
      <point x="428" y="1324"/>
      <point x="508" y="1324" type="qcurve" smooth="yes"/>
      <point x="608" y="1324"/>
      <point x="636" y="1220" type="qcurve" smooth="yes"/>
      <point x="648" y="1172"/>
      <point x="620" y="1120" type="qcurve"/>
      <point x="684" y="1096" type="line"/>
      <point x="748" y="1076" type="line"/>
      <point x="956" y="996" type="line"/>
      <point x="1136" y="908"/>
      <point x="1228" y="760" type="qcurve" smooth="yes"/>
      <point x="1296" y="652"/>
      <point x="1300" y="524" type="qcurve" smooth="yes"/>
      <point x="1308" y="328"/>
      <point x="1176" y="204" type="qcurve" smooth="yes"/>
      <point x="1128" y="164"/>
      <point x="1076" y="140" type="qcurve" smooth="yes"/>
      <point x="1008" y="108"/>
      <point x="924" y="100" type="qcurve"/>
      <point x="924" y="184" type="line" smooth="yes"/>
      <point x="916" y="328"/>
      <point x="884" y="432" type="qcurve" smooth="yes"/>
      <point x="848" y="528"/>
      <point x="784" y="580" type="qcurve" smooth="yes"/>
      <point x="740" y="608"/>
      <point x="692" y="612" type="qcurve" smooth="yes"/>
      <point x="564" y="620"/>
      <point x="496" y="508" type="qcurve"/>
      <point x="480" y="468" type="line" smooth="yes"/>
      <point x="460" y="416"/>
      <point x="476" y="356" type="qcurve" smooth="yes"/>
      <point x="484" y="332"/>
      <point x="496" y="300" type="qcurve" smooth="yes"/>
      <point x="504" y="280" type="line"/>
      <point x="544" y="332"/>
      <point x="588" y="352" type="qcurve" smooth="yes"/>
      <point x="624" y="360" type="line" smooth="yes"/>
      <point x="740" y="380"/>
      <point x="796" y="276" type="qcurve" smooth="yes"/>
      <point x="804" y="256"/>
      <point x="812" y="236" type="qcurve" smooth="yes"/>
      <point x="812" y="232"/>
      <point x="812" y="228" type="qcurve" smooth="yes"/>
      <point x="836" y="112"/>
      <point x="728" y="52" type="qcurve" smooth="yes"/>
      <point x="708" y="40"/>
      <point x="688" y="36" type="qcurve" smooth="yes"/>
      <point x="620" y="32" type="line"/>
      <point x="552" y="48" type="line" smooth="yes"/>
      <point x="396" y="96"/>
      <point x="352" y="272" type="qcurve"/>
      <point x="344" y="348" type="line" smooth="yes"/>
      <point x="340" y="372"/>
      <point x="344" y="392" type="qcurve" smooth="yes"/>
      <point x="364" y="516"/>
      <point x="436" y="596" type="qcurve" smooth="yes"/>
      <point x="532" y="696"/>
      <point x="684" y="696" type="qcurve" smooth="yes"/>
      <point x="780" y="700"/>
      <point x="860" y="656" type="qcurve" smooth="yes"/>
      <point x="1036" y="560"/>
      <point x="1056" y="328" type="qcurve" smooth="yes"/>
      <point x="1060" y="324"/>
      <point x="1060" y="320" type="qcurve" smooth="yes"/>
    </contour>
  </outline>
</glyph>
<glyph name="semicolon" format="1">
  <advance width="1582"/>
  <unicode hex="003B"/>
  <unicode hex="037E"/>
  <outline>
    <contour>
      <point x="220" y="1384" type="line"/>
      <point x="1020" y="1384" type="line"/>
      <point x="1212" y="1384" type="line"/>
      <point x="1288" y="1376" type="line"/>
      <point x="1312" y="1344" type="line"/>
      <point x="1344" y="1272" type="line"/>
      <point x="472" y="1272" type="line"/>
      <point x="472" y="696" type="line"/>
      <point x="648" y="872"/>
      <point x="872" y="1008" type="qcurve" smooth="yes"/>
      <point x="976" y="1068" type="line"/>
      <point x="992" y="1076" type="line"/>
      <point x="1028" y="1092" type="line" smooth="yes"/>
      <point x="1040" y="1096"/>
      <point x="1060" y="1076" type="qcurve" smooth="yes"/>
      <point x="1068" y="1068" type="line"/>
      <point x="1100" y="1036" type="line"/>
      <point x="1128" y="1004" type="line"/>
      <point x="1156" y="964" type="line" smooth="yes"/>
      <point x="1164" y="944"/>
      <point x="1144" y="920" type="qcurve" smooth="yes"/>
      <point x="1128" y="888" type="line"/>
      <point x="1112" y="856" type="line" smooth="yes"/>
      <point x="1064" y="748"/>
      <point x="1044" y="616" type="qcurve" smooth="yes"/>
      <point x="1012" y="372"/>
      <point x="1096" y="156" type="qcurve" smooth="yes"/>
      <point x="1128" y="80" type="line"/>
      <point x="1132" y="68" type="line"/>
      <point x="1164" y="4" type="line"/>
      <point x="1096" y="40" type="line"/>
      <point x="1056" y="92" type="line"/>
      <point x="1000" y="200" type="line" smooth="yes"/>
      <point x="904" y="400"/>
      <point x="932" y="828" type="qcurve"/>
      <point x="912" y="672" type="line"/>
      <point x="932" y="828" type="line"/>
      <point x="708" y="664"/>
      <point x="588" y="544" type="qcurve" smooth="yes"/>
      <point x="548" y="500" type="line"/>
      <point x="508" y="456" type="line"/>
      <point x="496" y="444" type="line"/>
      <point x="472" y="428" type="line"/>
      <point x="440" y="448" type="line"/>
      <point x="428" y="464" type="line"/>
      <point x="404" y="492" type="line" smooth="yes"/>
      <point x="356" y="540"/>
      <point x="348" y="588" type="qcurve" smooth="yes"/>
      <point x="340" y="736"/>
      <point x="348" y="1044" type="qcurve" smooth="yes"/>
      <point x="348" y="1272" type="line"/>
      <point x="276" y="1276" type="line"/>
      <point x="252" y="1312" type="line"/>
    </contour>
  </outline>
</glyph>
<glyph name="D" format="1">
  <advance width="1582"/>
  <unicode hex="0044"/>
  <outline>
    <contour>
      <point x="901.232" y="1617.86" type="line"/>
      <point x="1047.01" y="1481.49" type="line"/>
      <point x="1192.79" y="1467.38" type="line"/>
      <point x="1216.3" y="1429.76" type="line"/>
      <point x="1258.62" y="1340.41" type="line"/>
      <point x="1047.01" y="1340.41" type="line"/>
      <point x="1047.01" y="-150.279" type="line"/>
      <point x="1028.2" y="-140.875" type="line" smooth="yes"/>
      <point x="995.282" y="-122.065"/>
      <point x="981.175" y="-98.5527" type="qcurve" smooth="yes"/>
      <point x="976.473" y="-79.7422" type="line"/>
      <point x="971.77" y="-60.9326" type="line"/>
      <point x="967.067" y="-42.1221" type="line"/>
      <point x="938.853" y="51.9277" type="line" smooth="yes"/>
      <point x="905.935" y="150.68"/>
      <point x="802.48" y="258.837" type="qcurve" smooth="yes"/>
      <point x="642.595" y="423.425"/>
      <point x="416.875" y="531.583" type="qcurve"/>
      <point x="256.99" y="588.013" type="line"/>
      <point x="224.072" y="597.418" type="line"/>
      <point x="219.37" y="597.418" type="line"/>
      <point x="214.668" y="597.418" type="line"/>
      <point x="209.965" y="602.12" type="line"/>
      <point x="162.94" y="616.228" type="line"/>
      <point x="134.725" y="653.847" type="line"/>
      <point x="115.915" y="677.359" type="line"/>
      <point x="92.4023" y="714.98" type="line"/>
      <point x="45.3779" y="794.922" type="line"/>
      <point x="238.181" y="921.89" type="line"/>
      <point x="351.04" y="983.022" type="line"/>
      <point x="351.04" y="987.725" type="line"/>
      <point x="200.56" y="992.428"/>
      <point x="167.643" y="1157.01" type="qcurve"/>
      <point x="167.643" y="1161.72" type="line"/>
      <point x="162.94" y="1222.85" type="line"/>
      <point x="162.94" y="1232.25" type="line"/>
      <point x="162.94" y="1246.36" type="line"/>
      <point x="186.453" y="1429.76"/>
      <point x="341.635" y="1495.6" type="qcurve"/>
      <point x="402.768" y="1509.7" type="line"/>
      <point x="440.388" y="1509.7" type="line" smooth="yes"/>
      <point x="515.628" y="1500.3"/>
      <point x="553.247" y="1472.08" type="qcurve" smooth="yes"/>
      <point x="628.487" y="1420.36"/>
      <point x="619.082" y="1335.71" type="qcurve" smooth="yes"/>
      <point x="619.082" y="1293.39"/>
      <point x="590.868" y="1255.77" type="qcurve" smooth="yes"/>
      <point x="553.247" y="1208.74"/>
      <point x="482.71" y="1208.74" type="qcurve" smooth="yes"/>
      <point x="426.28" y="1208.74"/>
      <point x="383.957" y="1251.07" type="qcurve" smooth="yes"/>
      <point x="351.04" y="1283.98"/>
      <point x="351.04" y="1354.52" type="qcurve"/>
      <point x="299.312" y="1307.5" type="line"/>
      <point x="228.775" y="1204.04"/>
      <point x="351.04" y="1124.1" type="qcurve" smooth="yes"/>
      <point x="398.065" y="1095.88" type="line" smooth="yes"/>
      <point x="463.9" y="1067.67"/>
      <point x="506.223" y="1072.37" type="qcurve" smooth="yes"/>
      <point x="562.652" y="1091.18" type="line"/>
      <point x="604.975" y="1109.99" type="line"/>
      <point x="689.619" y="1142.91" type="line"/>
      <point x="769.562" y="1175.83" type="line"/>
      <point x="811.885" y="1194.63" type="line"/>
      <point x="858.91" y="1208.74" type="line"/>
      <point x="896.53" y="1232.25" type="line"/>
      <point x="905.935" y="1293.39" type="line"/>
      <point x="901.232" y="1316.9" type="line"/>
      <point x="901.232" y="1349.82" type="line"/>
    </contour>
    <contour>
      <point x="304.016" y="743.195" type="line"/>
      <point x="379.256" y="729.087"/>
      <point x="487.412" y="653.847" type="qcurve" smooth="yes"/>
      <point x="590.868" y="592.715"/>
      <point x="694.322" y="493.962" type="qcurve" smooth="yes"/>
      <point x="797.777" y="395.21"/>
      <point x="901.232" y="258.837" type="qcurve"/>
      <point x="901.232" y="1039.45" type="line"/>
      <point x="670.81" y="959.51"/>
      <point x="473.306" y="846.649" type="qcurve" smooth="yes"/>
      <point x="416.875" y="818.435" type="line"/>
      <point x="351.04" y="780.815" type="line"/>
    </contour>
    <contour>
      <point x="1195.4" y="-348.26" type="line"/>
      <point x="283.4" y="-348.26" type="line"/>
      <point x="283.4" y="-264.66" type="line"/>
      <point x="1195.4" y="-264.66" type="line"/>
    </contour>
  </outline>
</glyph>
<glyph name="G" format="1">
  <advance width="1582"/>
  <unicode hex="0047"/>
  <outline>
    <contour>
      <point x="1097" y="1508" type="line"/>
      <point x="1221" y="1392" type="line"/>
      <point x="1345" y="1380" type="line"/>
      <point x="1365" y="1348" type="line"/>
      <point x="1401" y="1272" type="line"/>
      <point x="1221" y="1272" type="line"/>
      <point x="1221" y="4" type="line"/>
      <point x="1181" y="32" type="line"/>
      <point x="1141" y="60" type="line"/>
      <point x="1129" y="72" type="line"/>
      <point x="1125" y="72" type="line"/>
      <point x="1121" y="76" type="line"/>
      <point x="1101" y="96" type="line"/>
      <point x="1097" y="128" type="line"/>
      <point x="1097" y="148" type="line"/>
      <point x="1097" y="164" type="line"/>
      <point x="1097" y="300" type="line"/>
      <point x="1097" y="792" type="line"/>
      <point x="1097" y="928" type="line"/>
      <point x="1097" y="948" type="line"/>
      <point x="1097" y="952" type="line"/>
      <point x="1097" y="956" type="line"/>
      <point x="1093" y="1000" type="line" smooth="yes"/>
      <point x="1089" y="1028"/>
      <point x="1045" y="1064" type="qcurve" smooth="yes"/>
      <point x="1025" y="1084" type="line"/>
      <point x="965" y="1140" type="line"/>
      <point x="925" y="1176" type="line"/>
      <point x="749" y="1312"/>
      <point x="637" y="1284" type="qcurve" smooth="yes"/>
      <point x="601" y="1272" type="line"/>
      <point x="553" y="1244" type="line"/>
      <point x="533" y="1224" type="line"/>
      <point x="505" y="1184" type="line"/>
      <point x="481" y="1120" type="line"/>
      <point x="477" y="1088" type="line"/>
      <point x="561" y="1112"/>
      <point x="649" y="1112" type="qcurve" smooth="yes"/>
      <point x="745" y="1096" type="line"/>
      <point x="809" y="1060" type="line"/>
      <point x="849" y="1016" type="line" smooth="yes"/>
      <point x="893" y="948"/>
      <point x="881" y="868" type="qcurve" smooth="yes"/>
      <point x="869" y="780"/>
      <point x="805" y="676" type="qcurve" smooth="yes"/>
      <point x="773" y="616"/>
      <point x="717" y="556" type="qcurve" smooth="yes"/>
      <point x="705" y="544" type="line"/>
      <point x="701" y="540" type="line"/>
      <point x="685" y="528" type="line"/>
      <point x="669" y="524" type="line" smooth="yes"/>
      <point x="657" y="516"/>
      <point x="637" y="536" type="qcurve" smooth="yes"/>
      <point x="629" y="540" type="line"/>
      <point x="557" y="588" type="line"/>
      <point x="557" y="592" type="line"/>
      <point x="689" y="724"/>
      <point x="741" y="852" type="qcurve" smooth="yes"/>
      <point x="749" y="872" type="line"/>
      <point x="761" y="912" type="line" smooth="yes"/>
      <point x="769" y="952"/>
      <point x="757" y="972" type="qcurve" smooth="yes"/>
      <point x="729" y="1032"/>
      <point x="641" y="1016" type="qcurve" smooth="yes"/>
      <point x="577" y="992" type="line"/>
      <point x="573" y="992" type="line"/>
      <point x="569" y="988" type="line"/>
      <point x="549" y="980" type="line"/>
      <point x="509" y="956" type="line"/>
      <point x="485" y="944" type="line"/>
      <point x="457" y="932" type="line"/>
      <point x="437" y="924" type="line"/>
      <point x="405" y="916" type="line"/>
      <point x="365" y="920" type="line"/>
      <point x="349" y="944" type="line"/>
      <point x="341" y="956" type="line"/>
      <point x="317" y="1044" type="line"/>
      <point x="313" y="1104" type="line"/>
      <point x="329" y="1272"/>
      <point x="525" y="1352" type="qcurve" smooth="yes"/>
      <point x="573" y="1372"/>
      <point x="721" y="1384" type="qcurve" smooth="yes"/>
      <point x="625" y="1380" type="line"/>
      <point x="721" y="1384" type="line" smooth="yes"/>
      <point x="777" y="1376"/>
      <point x="845" y="1340" type="qcurve" smooth="yes"/>
      <point x="953" y="1288"/>
      <point x="1097" y="1136" type="qcurve"/>
    </contour>
    <contour>
      <point x="1272" y="-400" type="line"/>
      <point x="312" y="-400" type="line"/>
      <point x="312" y="-300" type="line"/>
      <point x="1272" y="-300" type="line"/>
    </contour>
  </outline>
</glyph>
<glyph name="M" format="1">
  <advance width="1582"/>
  <unicode hex="004D"/>
  <outline>
    <contour>
      <point x="-65" y="1063.5" type="line"/>
      <point x="831" y="1063.5" type="line"/>
      <point x="1035" y="1063.5" type="line"/>
      <point x="1119" y="1055.5" type="line"/>
      <point x="1143" y="1023.5" type="line"/>
      <point x="1175" y="951.5" type="line"/>
      <point x="995" y="951.5" type="line"/>
      <point x="995" y="-316.5" type="line"/>
      <point x="979" y="-308.5" type="line" smooth="yes"/>
      <point x="951" y="-292.5"/>
      <point x="939" y="-272.5" type="qcurve" smooth="yes"/>
      <point x="927" y="-236.5" type="line"/>
      <point x="927" y="-216.5" type="line"/>
      <point x="923" y="-200.5" type="line"/>
      <point x="911" y="-160.5" type="line"/>
      <point x="879" y="-80.5" type="line"/>
      <point x="791" y="79.5"/>
      <point x="603" y="195.5" type="qcurve"/>
      <point x="571" y="123.5"/>
      <point x="523" y="83.5" type="qcurve" smooth="yes"/>
      <point x="483" y="51.5"/>
      <point x="435" y="39.5" type="qcurve" smooth="yes"/>
      <point x="351" y="31.5" type="line"/>
      <point x="211" y="51.5"/>
      <point x="163" y="183.5" type="qcurve" smooth="yes"/>
      <point x="143" y="231.5"/>
      <point x="151" y="279.5" type="qcurve" smooth="yes"/>
      <point x="155" y="343.5"/>
      <point x="191" y="395.5" type="qcurve" smooth="yes"/>
      <point x="207" y="419.5"/>
      <point x="255" y="455.5" type="qcurve" smooth="yes"/>
      <point x="303" y="487.5"/>
      <point x="355" y="491.5" type="qcurve" smooth="yes"/>
      <point x="403" y="495.5"/>
      <point x="467" y="479.5" type="qcurve"/>
      <point x="471" y="479.5" type="line"/>
      <point x="475" y="475.5" type="line"/>
      <point x="523" y="463.5" type="line"/>
      <point x="527" y="487.5" type="line"/>
      <point x="531" y="519.5" type="line"/>
      <point x="527" y="579.5" type="line" smooth="yes"/>
      <point x="511" y="647.5"/>
      <point x="427" y="703.5" type="qcurve" smooth="yes"/>
      <point x="275" y="779.5" type="line"/>
      <point x="199" y="811.5" type="line" smooth="yes"/>
      <point x="139" y="839.5"/>
      <point x="91" y="887.5" type="qcurve" smooth="yes"/>
      <point x="79" y="903.5" type="line"/>
      <point x="79" y="907.5" type="line"/>
      <point x="75" y="915.5" type="line"/>
      <point x="55" y="939.5" type="line"/>
      <point x="23" y="951.5" type="line"/>
      <point x="23" y="951.5" type="line"/>
      <point x="-9" y="959.5" type="line"/>
      <point x="-29" y="983.5" type="line"/>
      <point x="-33" y="991.5" type="line"/>
      <point x="-49" y="1027.5" type="line"/>
    </contour>
    <contour>
      <point x="327" y="947.5" type="line"/>
      <point x="367" y="923.5"/>
      <point x="427" y="859.5" type="qcurve"/>
      <point x="431" y="851.5" type="line"/>
      <point x="447" y="835.5" type="line" smooth="yes"/>
      <point x="579" y="687.5"/>
      <point x="635" y="531.5" type="qcurve" smooth="yes"/>
      <point x="659" y="439.5" type="line"/>
      <point x="659" y="427.5" type="line"/>
      <point x="667" y="379.5" type="line"/>
      <point x="687" y="355.5" type="line"/>
      <point x="691" y="351.5" type="line"/>
      <point x="699" y="343.5" type="line"/>
      <point x="747" y="291.5" type="line" smooth="yes"/>
      <point x="795" y="243.5"/>
      <point x="843" y="163.5" type="qcurve" smooth="yes"/>
      <point x="871" y="119.5" type="line"/>
      <point x="871" y="951.5" type="line"/>
      <point x="327" y="951.5" type="line"/>
    </contour>
    <contour>
      <point x="1394" y="1325" type="move"/>
      <point x="1394" y="1169" type="line"/>
    </contour>
    <contour>
      <point x="887" y="1220" type="line"/>
      <point x="791" y="1220" type="line"/>
      <point x="791" y="1908" type="line"/>
      <point x="887" y="1908" type="line"/>
    </contour>
  </outline>
</glyph>
<glyph name="N" format="1">
  <advance width="1582"/>
  <unicode hex="004E"/>
  <outline>
    <contour>
      <point x="-127" y="1232.5" type="line"/>
      <point x="858.6" y="1232.5" type="line"/>
      <point x="1083" y="1232.5" type="line"/>
      <point x="1175.4" y="1223.7" type="line"/>
      <point x="1201.8" y="1188.5" type="line"/>
      <point x="1237" y="1109.3" type="line"/>
      <point x="1039" y="1109.3" type="line"/>
      <point x="1039" y="-285.5" type="line"/>
      <point x="1017" y="-272.3" type="line" smooth="yes"/>
      <point x="986.2" y="-254.7"/>
      <point x="977.4" y="-237.1" type="qcurve" smooth="yes"/>
      <point x="968.6" y="-193.1" type="line"/>
      <point x="968.6" y="-179.9" type="line"/>
      <point x="964.2" y="-149.1" type="line"/>
      <point x="929" y="4.90039" type="line" smooth="yes"/>
      <point x="858.6" y="238.1"/>
      <point x="695.8" y="405.3" type="qcurve" smooth="yes"/>
      <point x="572.6" y="519.7"/>
      <point x="440.6" y="528.5" type="qcurve"/>
      <point x="489" y="471.3"/>
      <point x="502.2" y="414.1" type="qcurve" smooth="yes"/>
      <point x="506.6" y="374.5"/>
      <point x="502.2" y="334.9" type="qcurve" smooth="yes"/>
      <point x="484.6" y="189.7"/>
      <point x="339.4" y="154.5" type="qcurve"/>
      <point x="260.2" y="145.7" type="line" smooth="yes"/>
      <point x="189.8" y="150.1"/>
      <point x="137" y="189.7" type="qcurve" smooth="yes"/>
      <point x="101.8" y="220.5"/>
      <point x="79.7998" y="255.7" type="qcurve" smooth="yes"/>
      <point x="44.5996" y="317.3"/>
      <point x="49" y="400.9" type="qcurve" smooth="yes"/>
      <point x="57.7998" y="546.1"/>
      <point x="167.8" y="634.1" type="qcurve" smooth="yes"/>
      <point x="264.6" y="717.7"/>
      <point x="387.8" y="708.9" type="qcurve" smooth="yes"/>
      <point x="603.4" y="700.1"/>
      <point x="814.6" y="409.7" type="qcurve"/>
      <point x="801.4" y="431.7" type="line" smooth="yes"/>
      <point x="805.8" y="418.5"/>
      <point x="814.6" y="409.7" type="qcurve" smooth="yes"/>
      <point x="832.2" y="378.9" type="line" smooth="yes"/>
      <point x="885" y="304.1"/>
      <point x="898.2" y="260.1" type="qcurve"/>
      <point x="902.6" y="260.1" type="line"/>
      <point x="902.6" y="1109.3" type="line"/>
      <point x="211.8" y="1109.3" type="line"/>
      <point x="22.5996" y="1109.3" type="line"/>
      <point x="-65.4004" y="1113.7" type="line"/>
      <point x="-91.7998" y="1153.3" type="line"/>
    </contour>
    <contour>
      <point x="1299" y="-400" type="line"/>
      <point x="339" y="-400" type="line"/>
      <point x="339" y="-312" type="line"/>
      <point x="1299" y="-312" type="line"/>
    </contour>
  </outline>
</glyph>
<glyph name="R" format="1">
  <advance width="1582"/>
  <unicode hex="0052"/>
  <outline>
    <contour>
      <point x="1299" y="-400" type="line"/>
      <point x="339" y="-400" type="line"/>
      <point x="339" y="-312" type="line"/>
      <point x="1299" y="-312" type="line"/>
    </contour>
    <contour>
      <point x="160.658" y="1371.35" type="line"/>
      <point x="1085.7" y="1371.35" type="line"/>
      <point x="1307.71" y="1371.35" type="line"/>
      <point x="1395.59" y="1362.1" type="line"/>
      <point x="1423.34" y="1325.1" type="line"/>
      <point x="1460.34" y="1241.84" type="line"/>
      <point x="1252.21" y="1241.84" type="line"/>
      <point x="1252.21" y="-224.349" type="line"/>
      <point x="1233.71" y="-215.098" type="line" smooth="yes"/>
      <point x="1201.33" y="-196.597"/>
      <point x="1187.45" y="-173.47" type="qcurve" smooth="yes"/>
      <point x="1182.83" y="-154.97" type="line"/>
      <point x="1178.2" y="-136.47" type="line"/>
      <point x="1173.58" y="-117.968" type="line"/>
      <point x="1145.83" y="-25.4639" type="line" smooth="yes"/>
      <point x="1113.45" y="71.6641"/>
      <point x="1011.7" y="178.044" type="qcurve" smooth="yes"/>
      <point x="854.439" y="339.926"/>
      <point x="632.429" y="446.307" type="qcurve"/>
      <point x="475.172" y="501.809" type="line"/>
      <point x="442.796" y="511.059" type="line"/>
      <point x="438.171" y="511.059" type="line"/>
      <point x="433.546" y="511.059" type="line"/>
      <point x="428.92" y="515.685" type="line"/>
      <point x="382.668" y="529.561" type="line"/>
      <point x="354.916" y="566.562" type="line"/>
      <point x="336.416" y="589.688" type="line"/>
      <point x="313.29" y="626.689" type="line"/>
      <point x="267.038" y="705.318" type="line"/>
      <point x="567.677" y="899.577"/>
      <point x="766.561" y="996.706" type="qcurve" smooth="yes"/>
      <point x="983.946" y="1084.59" type="line"/>
      <point x="1020.95" y="1098.46" type="line"/>
      <point x="1039.45" y="1103.09" type="line"/>
      <point x="1094.95" y="1126.21" type="line" smooth="yes"/>
      <point x="1113.45" y="1140.09"/>
      <point x="1113.45" y="1190.96" type="qcurve" smooth="yes"/>
      <point x="1113.45" y="1195.59" type="line"/>
      <point x="1113.45" y="1200.22" type="line"/>
      <point x="1113.45" y="1204.84" type="line"/>
      <point x="1108.83" y="1214.09" type="line"/>
      <point x="1108.83" y="1241.84" type="line"/>
      <point x="479.798" y="1241.84" type="line"/>
      <point x="304.04" y="1241.84" type="line"/>
      <point x="225.412" y="1246.47" type="line"/>
      <point x="197.66" y="1288.09" type="line"/>
    </contour>
    <contour>
      <point x="521.425" y="654.441" type="line"/>
      <point x="595.428" y="640.565"/>
      <point x="701.808" y="566.562" type="qcurve" smooth="yes"/>
      <point x="803.562" y="506.435"/>
      <point x="905.316" y="409.305" type="qcurve" smooth="yes"/>
      <point x="1007.07" y="312.176"/>
      <point x="1108.83" y="178.044" type="qcurve"/>
      <point x="1108.83" y="945.829" type="line"/>
      <point x="882.191" y="867.201"/>
      <point x="687.933" y="756.195" type="qcurve" smooth="yes"/>
      <point x="632.429" y="728.444" type="line"/>
      <point x="567.677" y="691.443" type="line"/>
    </contour>
    <contour>
      <point x="530.675" y="224.297" type="qcurve" smooth="yes"/>
      <point x="558.426" y="228.922" type="line"/>
      <point x="590.803" y="224.297" type="line" smooth="yes"/>
      <point x="683.307" y="205.796"/>
      <point x="692.557" y="94.791" type="qcurve" smooth="yes"/>
      <point x="692.557" y="-11.5879"/>
      <point x="586.177" y="-34.7148" type="qcurve" smooth="yes"/>
      <point x="558.426" y="-39.3398" type="line"/>
      <point x="526.051" y="-34.7148" type="line" smooth="yes"/>
      <point x="433.546" y="-16.2148"/>
      <point x="424.295" y="94.791" type="qcurve" smooth="yes"/>
      <point x="424.295" y="201.171"/>
    </contour>
  </outline>
</glyph>
<glyph name="bracketleft" format="1">
  <advance width="268"/>
  <unicode hex="005B"/>
  <outline>
    <contour>
      <point x="629.5" y="1063.5" type="line"/>
      <point x="1013.5" y="1063.5" type="line"/>
      <point x="1113.5" y="1063.5" type="line"/>
      <point x="1161.5" y="1055.5" type="line"/>
      <point x="1185.5" y="1023.5" type="line"/>
      <point x="1217.5" y="951.5" type="line"/>
      <point x="933.5" y="951.5" type="line"/>
      <point x="933.5" y="-316.5" type="line"/>
      <point x="853.5" y="-260.5" type="line"/>
      <point x="813.5" y="-228.5" type="line"/>
      <point x="805.5" y="-136.5" type="line"/>
      <point x="805.5" y="83.5" type="line"/>
      <point x="805.5" y="951.5" type="line"/>
      <point x="725.5" y="951.5" type="line"/>
      <point x="685.5" y="959.5" type="line"/>
      <point x="661.5" y="991.5" type="line"/>
    </contour>
    <contour>
      <point x="-141.5" y="1063.5" type="line"/>
      <point x="658.5" y="1063.5" type="line"/>
      <point x="850.5" y="1063.5" type="line"/>
      <point x="926.5" y="1055.5" type="line"/>
      <point x="950.5" y="1023.5" type="line"/>
      <point x="982.5" y="951.5" type="line"/>
      <point x="110.5" y="951.5" type="line"/>
      <point x="110.5" y="375.5" type="line"/>
      <point x="286.5" y="551.5"/>
      <point x="510.5" y="687.5" type="qcurve" smooth="yes"/>
      <point x="614.5" y="747.5" type="line"/>
      <point x="630.5" y="755.5" type="line"/>
      <point x="666.5" y="771.5" type="line" smooth="yes"/>
      <point x="678.5" y="775.5"/>
      <point x="698.5" y="755.5" type="qcurve" smooth="yes"/>
      <point x="706.5" y="747.5" type="line"/>
      <point x="738.5" y="715.5" type="line"/>
      <point x="766.5" y="683.5" type="line"/>
      <point x="794.5" y="643.5" type="line" smooth="yes"/>
      <point x="802.5" y="623.5"/>
      <point x="782.5" y="599.5" type="qcurve" smooth="yes"/>
      <point x="766.5" y="567.5" type="line"/>
      <point x="750.5" y="535.5" type="line" smooth="yes"/>
      <point x="702.5" y="427.5"/>
      <point x="682.5" y="295.5" type="qcurve" smooth="yes"/>
      <point x="650.5" y="51.5"/>
      <point x="734.5" y="-164.5" type="qcurve" smooth="yes"/>
      <point x="766.5" y="-240.5" type="line"/>
      <point x="770.5" y="-252.5" type="line"/>
      <point x="802.5" y="-316.5" type="line"/>
      <point x="734.5" y="-280.5" type="line"/>
      <point x="694.5" y="-228.5" type="line"/>
      <point x="638.5" y="-120.5" type="line" smooth="yes"/>
      <point x="542.5" y="79.5"/>
      <point x="570.5" y="507.5" type="qcurve"/>
      <point x="550.5" y="351.5" type="line"/>
      <point x="570.5" y="507.5" type="line"/>
      <point x="346.5" y="343.5"/>
      <point x="226.5" y="223.5" type="qcurve" smooth="yes"/>
      <point x="186.5" y="179.5" type="line"/>
      <point x="146.5" y="135.5" type="line"/>
      <point x="134.5" y="123.5" type="line"/>
      <point x="110.5" y="107.5" type="line"/>
      <point x="78.5" y="127.5" type="line"/>
      <point x="66.5" y="143.5" type="line"/>
      <point x="42.5" y="171.5" type="line" smooth="yes"/>
      <point x="-5.5" y="219.5"/>
      <point x="-13.5" y="267.5" type="qcurve" smooth="yes"/>
      <point x="-21.5" y="415.5"/>
      <point x="-13.5" y="723.5" type="qcurve" smooth="yes"/>
      <point x="-13.5" y="951.5" type="line"/>
      <point x="-85.5" y="955.5" type="line"/>
      <point x="-109.5" y="991.5" type="line"/>
    </contour>
  </outline>
</glyph>
<glyph name="backslash" format="1">
  <advance width="3136"/>
  <unicode hex="005C"/>
  <outline>
    <contour>
      <point x="1333.85" y="1019.15" type="line"/>
      <point x="2114.99" y="1019.15" type="line"/>
      <point x="2302.47" y="1019.15" type="line"/>
      <point x="2376.68" y="1011.33" type="line"/>
      <point x="2400.11" y="980.088" type="line"/>
      <point x="2431.36" y="909.786" type="line"/>
      <point x="2255.6" y="909.786" type="line"/>
      <point x="2255.6" y="-328.331" type="line"/>
      <point x="2239.98" y="-320.52" type="line" smooth="yes"/>
      <point x="2212.64" y="-304.896"/>
      <point x="2200.92" y="-285.367" type="qcurve" smooth="yes"/>
      <point x="2197.01" y="-269.745" type="line"/>
      <point x="2193.11" y="-254.122" type="line"/>
      <point x="2189.2" y="-238.499" type="line"/>
      <point x="2165.77" y="-160.384" type="line" smooth="yes"/>
      <point x="2138.43" y="-78.3652"/>
      <point x="2052.5" y="11.4668" type="qcurve" smooth="yes"/>
      <point x="1919.71" y="148.168"/>
      <point x="1732.23" y="238" type="qcurve"/>
      <point x="1599.44" y="284.868" type="line"/>
      <point x="1572.1" y="292.68" type="line"/>
      <point x="1568.19" y="292.68" type="line"/>
      <point x="1564.29" y="292.68" type="line"/>
      <point x="1560.38" y="296.586" type="line"/>
      <point x="1521.32" y="308.304" type="line"/>
      <point x="1497.89" y="339.549" type="line"/>
      <point x="1482.27" y="359.078" type="line"/>
      <point x="1462.74" y="390.323" type="line"/>
      <point x="1423.68" y="456.721" type="line"/>
      <point x="1677.55" y="620.761"/>
      <point x="1845.5" y="702.781" type="qcurve" smooth="yes"/>
      <point x="2029.07" y="776.991" type="line"/>
      <point x="2060.31" y="788.709" type="line"/>
      <point x="2075.94" y="792.614" type="line"/>
      <point x="2122.8" y="812.143" type="line" smooth="yes"/>
      <point x="2138.43" y="823.859"/>
      <point x="2138.43" y="866.822" type="qcurve" smooth="yes"/>
      <point x="2138.43" y="870.728" type="line"/>
      <point x="2138.43" y="874.634" type="line"/>
      <point x="2138.43" y="878.538" type="line"/>
      <point x="2134.52" y="886.352" type="line"/>
      <point x="2134.52" y="909.786" type="line"/>
      <point x="1603.34" y="909.786" type="line"/>
      <point x="1454.93" y="909.786" type="line"/>
      <point x="1388.53" y="913.691" type="line"/>
      <point x="1365.09" y="948.843" type="line"/>
    </contour>
    <contour>
      <point x="1638.5" y="413.758" type="line"/>
      <point x="1700.99" y="402.041"/>
      <point x="1790.82" y="339.549" type="qcurve" smooth="yes"/>
      <point x="1876.75" y="288.774"/>
      <point x="1962.67" y="206.754" type="qcurve" smooth="yes"/>
      <point x="2048.6" y="124.733"/>
      <point x="2134.52" y="11.4668" type="qcurve"/>
      <point x="2134.52" y="659.818" type="line"/>
      <point x="1943.14" y="593.423"/>
      <point x="1779.1" y="499.685" type="qcurve" smooth="yes"/>
      <point x="1732.23" y="476.25" type="line"/>
      <point x="1677.55" y="445.004" type="line"/>
    </contour>
    <contour>
      <point x="1646.31" y="50.5244" type="qcurve" smooth="yes"/>
      <point x="1669.74" y="54.4307" type="line"/>
      <point x="1697.08" y="50.5244" type="line" smooth="yes"/>
      <point x="1775.2" y="34.9014"/>
      <point x="1783.01" y="-58.835" type="qcurve" smooth="yes"/>
      <point x="1783.01" y="-148.667"/>
      <point x="1693.17" y="-168.195" type="qcurve" smooth="yes"/>
      <point x="1669.74" y="-172.102" type="line"/>
      <point x="1642.4" y="-168.195" type="line" smooth="yes"/>
      <point x="1564.29" y="-152.573"/>
      <point x="1556.47" y="-58.835" type="qcurve" smooth="yes"/>
      <point x="1556.47" y="30.9961"/>
    </contour>
    <contour>
      <point x="407.729" y="1007.08" type="line"/>
      <point x="353.578" y="1055.53" type="line"/>
      <point x="336.479" y="1072.63" type="line" smooth="yes"/>
      <point x="307.979" y="1106.83"/>
      <point x="285.179" y="1149.58" type="qcurve"/>
      <point x="273.778" y="1198.03" type="line" smooth="yes"/>
      <point x="253.828" y="1309.18"/>
      <point x="407.729" y="1394.68" type="qcurve" smooth="yes"/>
      <point x="439.078" y="1411.78" type="line"/>
      <point x="461.879" y="1420.33" type="line"/>
      <point x="484.679" y="1428.88" type="line"/>
      <point x="558.778" y="1451.68" type="line" smooth="yes"/>
      <point x="621.479" y="1468.78"/>
      <point x="684.179" y="1471.63" type="qcurve" smooth="yes"/>
      <point x="755.429" y="1477.33"/>
      <point x="803.879" y="1468.78" type="qcurve" smooth="yes"/>
      <point x="960.629" y="1448.83"/>
      <point x="1131.63" y="1334.83" type="qcurve" smooth="yes"/>
      <point x="1245.63" y="1255.03"/>
      <point x="1305.48" y="1178.08" type="qcurve" smooth="yes"/>
      <point x="1336.83" y="1132.48" type="line"/>
      <point x="1339.68" y="1126.78" type="line"/>
      <point x="1342.53" y="1123.93" type="line"/>
      <point x="1342.53" y="1112.53" type="line"/>
      <point x="1331.13" y="1106.83" type="line"/>
      <point x="1325.43" y="1109.68" type="line"/>
      <point x="1299.78" y="1126.78" type="line"/>
      <point x="1291.23" y="1135.33" type="line"/>
      <point x="1268.43" y="1163.83" type="line"/>
      <point x="1262.73" y="1172.38" type="line"/>
      <point x="1248.48" y="1192.33" type="line" smooth="yes"/>
      <point x="1205.73" y="1240.78"/>
      <point x="1160.13" y="1266.43" type="qcurve" smooth="yes"/>
      <point x="1009.08" y="1380.43"/>
      <point x="826.679" y="1397.53" type="qcurve"/>
      <point x="726.929" y="1394.68" type="line" smooth="yes"/>
      <point x="630.028" y="1386.13"/>
      <point x="535.979" y="1349.08" type="qcurve" smooth="yes"/>
      <point x="427.679" y="1312.03"/>
      <point x="373.528" y="1235.08" type="qcurve" smooth="yes"/>
      <point x="342.179" y="1198.03"/>
      <point x="347.879" y="1158.13" type="qcurve" smooth="yes"/>
      <point x="347.879" y="1155.28" type="line" smooth="yes"/>
      <point x="347.879" y="1126.78"/>
      <point x="362.129" y="1103.98" type="qcurve" smooth="yes"/>
      <point x="376.379" y="1081.18"/>
      <point x="430.528" y="1029.88" type="qcurve" smooth="yes"/>
      <point x="450.479" y="1009.93"/>
      <point x="473.278" y="1004.23" type="qcurve" smooth="yes"/>
      <point x="484.679" y="998.532"/>
      <point x="507.479" y="1004.23" type="qcurve" smooth="yes"/>
      <point x="524.578" y="1004.23" type="line"/>
      <point x="618.629" y="1004.23" type="line"/>
      <point x="632.879" y="1004.23" type="line"/>
      <point x="644.278" y="1004.23" type="line"/>
      <point x="647.129" y="1004.23" type="line"/>
      <point x="667.078" y="1001.38" type="line"/>
      <point x="675.629" y="998.532" type="line"/>
      <point x="687.028" y="984.282" type="line"/>
      <point x="689.879" y="981.433" type="line"/>
      <point x="692.729" y="975.732" type="line"/>
      <point x="704.129" y="950.083" type="line"/>
      <point x="715.528" y="924.433" type="line"/>
      <point x="533.129" y="924.433" type="line"/>
      <point x="533.129" y="20.9824" type="line"/>
      <point x="476.129" y="60.8828" type="line"/>
      <point x="447.629" y="83.6826" type="line"/>
      <point x="441.929" y="149.232" type="line"/>
      <point x="441.929" y="305.982" type="line"/>
      <point x="441.929" y="924.433" type="line"/>
      <point x="370.679" y="924.433" type="line"/>
      <point x="336.479" y="930.133" type="line"/>
      <point x="319.379" y="952.933" type="line"/>
      <point x="296.578" y="1004.23" type="line"/>
      <point x="407.729" y="1004.23" type="line"/>
    </contour>
    <contour>
      <point x="455.703" y="1038.91" type="line"/>
      <point x="1215.7" y="1038.91" type="line"/>
      <point x="1398.1" y="1038.91" type="line"/>
      <point x="1470.3" y="1031.31" type="line"/>
      <point x="1493.1" y="1000.91" type="line"/>
      <point x="1523.5" y="932.508" type="line"/>
      <point x="695.104" y="932.508" type="line"/>
      <point x="695.104" y="385.308" type="line"/>
      <point x="862.304" y="552.508"/>
      <point x="1075.1" y="681.708" type="qcurve" smooth="yes"/>
      <point x="1173.9" y="738.708" type="line"/>
      <point x="1189.1" y="746.308" type="line"/>
      <point x="1223.3" y="761.508" type="line" smooth="yes"/>
      <point x="1234.7" y="765.308"/>
      <point x="1253.7" y="746.308" type="qcurve" smooth="yes"/>
      <point x="1261.3" y="738.708" type="line"/>
      <point x="1291.7" y="708.308" type="line"/>
      <point x="1318.3" y="677.907" type="line"/>
      <point x="1344.9" y="639.907" type="line" smooth="yes"/>
      <point x="1352.5" y="620.907"/>
      <point x="1333.5" y="598.107" type="qcurve" smooth="yes"/>
      <point x="1318.3" y="567.708" type="line"/>
      <point x="1303.1" y="537.308" type="line" smooth="yes"/>
      <point x="1257.5" y="434.708"/>
      <point x="1238.5" y="309.308" type="qcurve" smooth="yes"/>
      <point x="1208.1" y="77.5078"/>
      <point x="1287.9" y="-127.692" type="qcurve" smooth="yes"/>
      <point x="1318.3" y="-199.893" type="line"/>
      <point x="1322.1" y="-211.292" type="line"/>
      <point x="1352.5" y="-272.093" type="line"/>
      <point x="1287.9" y="-237.893" type="line"/>
      <point x="1249.9" y="-188.492" type="line"/>
      <point x="1196.7" y="-85.8926" type="line" smooth="yes"/>
      <point x="1105.5" y="104.107"/>
      <point x="1132.1" y="510.708" type="qcurve"/>
      <point x="1113.1" y="362.508" type="line"/>
      <point x="1132.1" y="510.708" type="line"/>
      <point x="919.304" y="354.907"/>
      <point x="805.304" y="240.907" type="qcurve" smooth="yes"/>
      <point x="767.304" y="199.107" type="line"/>
      <point x="729.304" y="157.308" type="line"/>
      <point x="717.903" y="145.907" type="line"/>
      <point x="695.104" y="130.708" type="line"/>
      <point x="664.703" y="149.708" type="line"/>
      <point x="653.304" y="164.907" type="line"/>
      <point x="630.504" y="191.508" type="line" smooth="yes"/>
      <point x="584.903" y="237.107"/>
      <point x="577.304" y="282.708" type="qcurve" smooth="yes"/>
      <point x="569.703" y="423.308"/>
      <point x="577.304" y="715.907" type="qcurve" smooth="yes"/>
      <point x="577.304" y="932.508" type="line"/>
      <point x="508.903" y="936.308" type="line"/>
      <point x="486.104" y="970.508" type="line"/>
    </contour>
    <contour>
      <point x="2722" y="-1200" type="qcurve"/>
      <point x="2769" y="-1200" type="line"/>
      <point x="2672" y="-1350"/>
      <point x="2542" y="-1451" type="qcurve" smooth="yes"/>
      <point x="2357" y="-1594"/>
      <point x="1854" y="-1750"/>
      <point x="1584" y="-1750" type="qcurve" smooth="yes"/>
      <point x="1189" y="-1750"/>
      <point x="537" y="-1445"/>
      <point x="396" y="-1200" type="qcurve"/>
      <point x="450" y="-1200" type="line"/>
      <point x="537" y="-1322"/>
      <point x="838" y="-1479"/>
      <point x="1300" y="-1557"/>
      <point x="1551" y="-1557" type="qcurve" smooth="yes"/>
      <point x="1824" y="-1557"/>
      <point x="2047" y="-1524" type="qcurve" smooth="yes"/>
      <point x="2223" y="-1498"/>
      <point x="2436" y="-1425"/>
      <point x="2632" y="-1300"/>
    </contour>
  </outline>
</glyph>
<glyph name="bracketright" format="1">
  <advance width="268"/>
  <unicode hex="005D"/>
  <outline>
    <contour>
      <point x="-231.035" y="1068.37" type="line"/>
      <point x="539.833" y="1068.37" type="line"/>
      <point x="724.842" y="1068.37" type="line"/>
      <point x="798.073" y="1060.67" type="line"/>
      <point x="821.199" y="1029.83" type="line"/>
      <point x="852.035" y="960.453" type="line"/>
      <point x="678.59" y="960.453" type="line"/>
      <point x="678.59" y="-261.373" type="line"/>
      <point x="663.172" y="-253.665" type="line" smooth="yes"/>
      <point x="636.191" y="-238.247"/>
      <point x="624.629" y="-218.975" type="qcurve" smooth="yes"/>
      <point x="620.774" y="-203.559" type="line"/>
      <point x="616.92" y="-188.142" type="line"/>
      <point x="613.065" y="-172.724" type="line"/>
      <point x="589.94" y="-95.6367" type="line" smooth="yes"/>
      <point x="562.959" y="-14.6973"/>
      <point x="478.164" y="73.9531" type="qcurve" smooth="yes"/>
      <point x="347.116" y="208.855"/>
      <point x="162.107" y="297.506" type="qcurve"/>
      <point x="31.0596" y="343.757" type="line"/>
      <point x="4.08008" y="351.466" type="line"/>
      <point x="0.225586" y="351.466" type="line"/>
      <point x="-3.62891" y="351.466" type="line"/>
      <point x="-7.4834" y="355.32" type="line"/>
      <point x="-46.0273" y="366.884" type="line"/>
      <point x="-69.1533" y="397.719" type="line"/>
      <point x="-84.5703" y="416.99" type="line"/>
      <point x="-103.842" y="447.824" type="line"/>
      <point x="-142.385" y="513.349" type="line"/>
      <point x="108.147" y="675.23"/>
      <point x="273.884" y="756.172" type="qcurve" smooth="yes"/>
      <point x="455.038" y="829.404" type="line"/>
      <point x="485.873" y="840.969" type="line"/>
      <point x="501.289" y="844.822" type="line"/>
      <point x="547.541" y="864.094" type="line" smooth="yes"/>
      <point x="562.959" y="875.656"/>
      <point x="562.959" y="918.055" type="qcurve" smooth="yes"/>
      <point x="562.959" y="921.908" type="line"/>
      <point x="562.959" y="925.763" type="line"/>
      <point x="562.959" y="929.616" type="line"/>
      <point x="559.104" y="937.326" type="line"/>
      <point x="559.104" y="960.453" type="line"/>
      <point x="34.9141" y="960.453" type="line"/>
      <point x="-111.55" y="960.453" type="line"/>
      <point x="-177.073" y="964.307" type="line"/>
      <point x="-200.199" y="998.996" type="line"/>
    </contour>
    <contour>
      <point x="69.6045" y="470.951" type="line"/>
      <point x="131.273" y="459.389"/>
      <point x="219.923" y="397.719" type="qcurve" smooth="yes"/>
      <point x="304.719" y="347.611"/>
      <point x="389.514" y="266.67" type="qcurve" smooth="yes"/>
      <point x="474.31" y="185.729"/>
      <point x="559.104" y="73.9531" type="qcurve"/>
      <point x="559.104" y="713.774" type="line"/>
      <point x="370.243" y="648.251"/>
      <point x="208.361" y="555.746" type="qcurve" smooth="yes"/>
      <point x="162.107" y="532.62" type="line"/>
      <point x="108.147" y="501.786" type="line"/>
    </contour>
    <contour>
      <point x="77.3125" y="112.497" type="qcurve" smooth="yes"/>
      <point x="100.438" y="116.352" type="line"/>
      <point x="127.419" y="112.497" type="line" smooth="yes"/>
      <point x="204.506" y="97.0801"/>
      <point x="212.214" y="4.57617" type="qcurve" smooth="yes"/>
      <point x="212.214" y="-84.0732"/>
      <point x="123.564" y="-103.346" type="qcurve" smooth="yes"/>
      <point x="100.438" y="-107.199" type="line"/>
      <point x="73.459" y="-103.346" type="line" smooth="yes"/>
      <point x="-3.62891" y="-87.9287"/>
      <point x="-11.3379" y="4.57617" type="qcurve" smooth="yes"/>
      <point x="-11.3379" y="93.2256"/>
    </contour>
    <contour>
      <point x="629.5" y="1063.5" type="line"/>
      <point x="1013.5" y="1063.5" type="line"/>
      <point x="1113.5" y="1063.5" type="line"/>
      <point x="1161.5" y="1055.5" type="line"/>
      <point x="1185.5" y="1023.5" type="line"/>
      <point x="1217.5" y="951.5" type="line"/>
      <point x="933.5" y="951.5" type="line"/>
      <point x="933.5" y="-316.5" type="line"/>
      <point x="853.5" y="-260.5" type="line"/>
      <point x="813.5" y="-228.5" type="line"/>
      <point x="805.5" y="-136.5" type="line"/>
      <point x="805.5" y="83.5" type="line"/>
      <point x="805.5" y="951.5" type="line"/>
      <point x="725.5" y="951.5" type="line"/>
      <point x="685.5" y="959.5" type="line"/>
      <point x="661.5" y="991.5" type="line"/>
    </contour>
  </outline>
</glyph>
<glyph name="asciicircum" format="1">
  <advance width="7"/>
  <unicode hex="005E"/>
  <outline>
    <contour>
      <point x="8925" y="-1200" type="qcurve"/>
      <point x="9097" y="-1200" type="line"/>
      <point x="8741" y="-1391"/>
      <point x="8265" y="-1519" type="qcurve" smooth="yes"/>
      <point x="7586" y="-1702"/>
      <point x="5742" y="-1900"/>
      <point x="4752" y="-1900" type="qcurve" smooth="yes"/>
      <point x="3304" y="-1900"/>
      <point x="913" y="-1511"/>
      <point x="396" y="-1200" type="qcurve"/>
      <point x="594" y="-1200" type="line"/>
      <point x="913" y="-1355"/>
      <point x="2017" y="-1556"/>
      <point x="3711" y="-1655"/>
      <point x="4631" y="-1655" type="qcurve" smooth="yes"/>
      <point x="5632" y="-1655"/>
      <point x="6450" y="-1613" type="qcurve" smooth="yes"/>
      <point x="7095" y="-1580"/>
      <point x="7876" y="-1486"/>
      <point x="8595" y="-1328"/>
    </contour>
  </outline>
</glyph>
<glyph name="d" format="1">
  <advance width="1582"/>
  <unicode hex="0064"/>
  <outline>
    <contour>
      <point x="914.35" y="1669.6" type="line"/>
      <point x="1067.8" y="1526.05" type="line"/>
      <point x="1221.25" y="1511.2" type="line"/>
      <point x="1246" y="1471.6" type="line"/>
      <point x="1290.55" y="1377.55" type="line"/>
      <point x="1067.8" y="1377.55" type="line"/>
      <point x="1067.8" y="-191.6" type="line"/>
      <point x="1048" y="-181.7" type="line" smooth="yes"/>
      <point x="1013.35" y="-161.9"/>
      <point x="998.5" y="-137.15" type="qcurve" smooth="yes"/>
      <point x="993.55" y="-117.35" type="line"/>
      <point x="988.6" y="-97.5498" type="line"/>
      <point x="983.65" y="-77.75" type="line"/>
      <point x="953.95" y="21.25" type="line" smooth="yes"/>
      <point x="919.3" y="125.2"/>
      <point x="810.4" y="239.05" type="qcurve" smooth="yes"/>
      <point x="642.1" y="412.3"/>
      <point x="404.5" y="526.15" type="qcurve"/>
      <point x="236.2" y="585.55" type="line"/>
      <point x="201.55" y="595.45" type="line"/>
      <point x="196.6" y="595.45" type="line"/>
      <point x="191.65" y="595.45" type="line"/>
      <point x="186.7" y="600.4" type="line"/>
      <point x="137.2" y="615.25" type="line"/>
      <point x="107.5" y="654.85" type="line"/>
      <point x="87.7002" y="679.6" type="line"/>
      <point x="62.9502" y="719.2" type="line"/>
      <point x="13.4502" y="803.35" type="line"/>
      <point x="216.4" y="937" type="line"/>
      <point x="335.2" y="1001.35" type="line"/>
      <point x="335.2" y="1006.3" type="line"/>
      <point x="176.8" y="1011.25"/>
      <point x="142.15" y="1184.5" type="qcurve"/>
      <point x="142.15" y="1189.45" type="line"/>
      <point x="137.2" y="1253.8" type="line"/>
      <point x="137.2" y="1263.7" type="line"/>
      <point x="137.2" y="1278.55" type="line"/>
      <point x="161.95" y="1471.6"/>
      <point x="325.3" y="1540.9" type="qcurve"/>
      <point x="389.65" y="1555.75" type="line"/>
      <point x="429.25" y="1555.75" type="line" smooth="yes"/>
      <point x="508.45" y="1545.85"/>
      <point x="548.05" y="1516.15" type="qcurve" smooth="yes"/>
      <point x="627.25" y="1461.7"/>
      <point x="617.35" y="1372.6" type="qcurve" smooth="yes"/>
      <point x="617.35" y="1328.05"/>
      <point x="587.65" y="1288.45" type="qcurve" smooth="yes"/>
      <point x="548.05" y="1238.95"/>
      <point x="473.8" y="1238.95" type="qcurve" smooth="yes"/>
      <point x="414.4" y="1238.95"/>
      <point x="369.85" y="1283.5" type="qcurve" smooth="yes"/>
      <point x="335.2" y="1318.15"/>
      <point x="335.2" y="1392.4" type="qcurve"/>
      <point x="280.75" y="1342.9" type="line"/>
      <point x="206.5" y="1234"/>
      <point x="335.2" y="1149.85" type="qcurve" smooth="yes"/>
      <point x="384.7" y="1120.15" type="line" smooth="yes"/>
      <point x="454" y="1090.45"/>
      <point x="498.55" y="1095.4" type="qcurve" smooth="yes"/>
      <point x="557.95" y="1115.2" type="line"/>
      <point x="602.5" y="1135" type="line"/>
      <point x="691.6" y="1169.65" type="line"/>
      <point x="775.75" y="1204.3" type="line"/>
      <point x="820.3" y="1224.1" type="line"/>
      <point x="869.8" y="1238.95" type="line"/>
      <point x="909.4" y="1263.7" type="line"/>
      <point x="919.3" y="1328.05" type="line"/>
      <point x="914.35" y="1352.8" type="line"/>
      <point x="914.35" y="1387.45" type="line"/>
    </contour>
    <contour>
      <point x="285.7" y="748.9" type="line"/>
      <point x="364.9" y="734.05"/>
      <point x="478.75" y="654.85" type="qcurve" smooth="yes"/>
      <point x="587.65" y="590.5"/>
      <point x="696.55" y="486.55" type="qcurve" smooth="yes"/>
      <point x="805.45" y="382.6"/>
      <point x="914.35" y="239.05" type="qcurve"/>
      <point x="914.35" y="1060.75" type="line"/>
      <point x="671.8" y="976.6"/>
      <point x="463.9" y="857.8" type="qcurve" smooth="yes"/>
      <point x="404.5" y="828.1" type="line"/>
      <point x="335.2" y="788.5" type="line"/>
    </contour>
  </outline>
</glyph>
<glyph name="g" format="1">
  <advance width="268"/>
  <unicode hex="0067"/>
  <outline>
    <contour>
      <point x="881.57" y="1618.26" type="line"/>
      <point x="1034.8" y="1474.91" type="line"/>
      <point x="1188.03" y="1460.08" type="line"/>
      <point x="1212.74" y="1420.54" type="line"/>
      <point x="1257.23" y="1326.63" type="line"/>
      <point x="1034.8" y="1326.63" type="line"/>
      <point x="1034.8" y="-240.256" type="line"/>
      <point x="985.371" y="-205.656" type="line"/>
      <point x="935.942" y="-171.056" type="line"/>
      <point x="921.114" y="-156.228" type="line"/>
      <point x="916.171" y="-156.228" type="line"/>
      <point x="911.228" y="-151.284" type="line"/>
      <point x="886.513" y="-126.57" type="line"/>
      <point x="881.57" y="-87.0264" type="line"/>
      <point x="881.57" y="-62.3135" type="line"/>
      <point x="881.57" y="-42.542" type="line"/>
      <point x="881.57" y="125.516" type="line"/>
      <point x="881.57" y="733.485" type="line"/>
      <point x="881.57" y="901.543" type="line"/>
      <point x="881.57" y="926.257" type="line"/>
      <point x="881.57" y="931.2" type="line"/>
      <point x="881.57" y="936.143" type="line"/>
      <point x="876.629" y="990.515" type="line" smooth="yes"/>
      <point x="871.687" y="1025.11"/>
      <point x="817.313" y="1069.6" type="qcurve" smooth="yes"/>
      <point x="792.599" y="1094.31" type="line"/>
      <point x="718.457" y="1163.51" type="line"/>
      <point x="669.027" y="1208" type="line"/>
      <point x="451.544" y="1376.06"/>
      <point x="313.144" y="1341.46" type="qcurve" smooth="yes"/>
      <point x="268.656" y="1326.63" type="line"/>
      <point x="209.344" y="1292.03" type="line"/>
      <point x="184.63" y="1267.31" type="line"/>
      <point x="150.029" y="1217.88" type="line"/>
      <point x="120.372" y="1138.8" type="line"/>
      <point x="115.43" y="1099.26" type="line"/>
      <point x="219.229" y="1128.91"/>
      <point x="327.972" y="1128.91" type="qcurve" smooth="yes"/>
      <point x="446.6" y="1109.14" type="line"/>
      <point x="525.687" y="1064.66" type="line"/>
      <point x="575.114" y="1010.29" type="line" smooth="yes"/>
      <point x="629.485" y="926.257"/>
      <point x="614.657" y="827.4" type="qcurve" smooth="yes"/>
      <point x="599.829" y="718.657"/>
      <point x="520.742" y="590.144" type="qcurve" smooth="yes"/>
      <point x="481.2" y="516.001"/>
      <point x="412.001" y="441.857" type="qcurve" smooth="yes"/>
      <point x="397.172" y="427.028" type="line"/>
      <point x="392.228" y="422.086" type="line"/>
      <point x="372.457" y="407.258" type="line"/>
      <point x="352.687" y="402.314" type="line" smooth="yes"/>
      <point x="337.857" y="392.43"/>
      <point x="313.144" y="417.144" type="qcurve" smooth="yes"/>
      <point x="303.258" y="422.086" type="line"/>
      <point x="214.286" y="481.401" type="line"/>
      <point x="214.286" y="486.344" type="line"/>
      <point x="377.4" y="649.456"/>
      <point x="441.657" y="807.63" type="qcurve" smooth="yes"/>
      <point x="451.544" y="832.343" type="line"/>
      <point x="466.371" y="881.772" type="line" smooth="yes"/>
      <point x="476.258" y="931.2"/>
      <point x="461.429" y="955.914" type="qcurve" smooth="yes"/>
      <point x="426.83" y="1030.06"/>
      <point x="318.086" y="1010.29" type="qcurve" smooth="yes"/>
      <point x="239.001" y="980.629" type="line"/>
      <point x="234.058" y="980.629" type="line"/>
      <point x="229.115" y="975.687" type="line"/>
      <point x="204.4" y="965.8" type="line"/>
      <point x="154.972" y="936.143" type="line"/>
      <point x="125.314" y="921.314" type="line"/>
      <point x="90.7148" y="906.486" type="line"/>
      <point x="66" y="896.6" type="line"/>
      <point x="26.457" y="886.714" type="line"/>
      <point x="-22.9707" y="891.656" type="line"/>
      <point x="-42.7422" y="921.314" type="line"/>
      <point x="-52.627" y="936.143" type="line"/>
      <point x="-82.2842" y="1044.88" type="line"/>
      <point x="-87.2275" y="1119.03" type="line"/>
      <point x="-67.4551" y="1326.63"/>
      <point x="174.743" y="1425.49" type="qcurve" smooth="yes"/>
      <point x="234.058" y="1450.2"/>
      <point x="416.942" y="1465.03" type="qcurve" smooth="yes"/>
      <point x="298.314" y="1460.08" type="line"/>
      <point x="416.942" y="1465.03" type="line" smooth="yes"/>
      <point x="486.144" y="1455.14"/>
      <point x="570.171" y="1410.66" type="qcurve" smooth="yes"/>
      <point x="703.629" y="1346.4"/>
      <point x="881.57" y="1158.57" type="qcurve"/>
    </contour>
  </outline>
</glyph>
<glyph name="m" format="1">
  <advance width="1582"/>
  <unicode hex="006D"/>
  <outline>
    <contour>
      <point x="174" y="1384" type="line"/>
      <point x="1070" y="1384" type="line"/>
      <point x="1274" y="1384" type="line"/>
      <point x="1358" y="1376" type="line"/>
      <point x="1382" y="1344" type="line"/>
      <point x="1414" y="1272" type="line"/>
      <point x="1234" y="1272" type="line"/>
      <point x="1234" y="4" type="line"/>
      <point x="1218" y="12" type="line" smooth="yes"/>
      <point x="1190" y="28"/>
      <point x="1178" y="48" type="qcurve" smooth="yes"/>
      <point x="1166" y="84" type="line"/>
      <point x="1166" y="104" type="line"/>
      <point x="1162" y="120" type="line"/>
      <point x="1150" y="160" type="line"/>
      <point x="1118" y="240" type="line"/>
      <point x="1030" y="400"/>
      <point x="842" y="516" type="qcurve"/>
      <point x="810" y="444"/>
      <point x="762" y="404" type="qcurve" smooth="yes"/>
      <point x="722" y="372"/>
      <point x="674" y="360" type="qcurve" smooth="yes"/>
      <point x="590" y="352" type="line"/>
      <point x="450" y="372"/>
      <point x="402" y="504" type="qcurve" smooth="yes"/>
      <point x="382" y="552"/>
      <point x="390" y="600" type="qcurve" smooth="yes"/>
      <point x="394" y="664"/>
      <point x="430" y="716" type="qcurve" smooth="yes"/>
      <point x="446" y="740"/>
      <point x="494" y="776" type="qcurve" smooth="yes"/>
      <point x="542" y="808"/>
      <point x="594" y="812" type="qcurve" smooth="yes"/>
      <point x="642" y="816"/>
      <point x="706" y="800" type="qcurve"/>
      <point x="710" y="800" type="line"/>
      <point x="714" y="796" type="line"/>
      <point x="762" y="784" type="line"/>
      <point x="766" y="808" type="line"/>
      <point x="770" y="840" type="line"/>
      <point x="766" y="900" type="line" smooth="yes"/>
      <point x="750" y="968"/>
      <point x="666" y="1024" type="qcurve" smooth="yes"/>
      <point x="514" y="1100" type="line"/>
      <point x="438" y="1132" type="line" smooth="yes"/>
      <point x="378" y="1160"/>
      <point x="330" y="1208" type="qcurve" smooth="yes"/>
      <point x="318" y="1224" type="line"/>
      <point x="318" y="1228" type="line"/>
      <point x="314" y="1236" type="line"/>
      <point x="294" y="1260" type="line"/>
      <point x="262" y="1272" type="line"/>
      <point x="262" y="1272" type="line"/>
      <point x="230" y="1280" type="line"/>
      <point x="210" y="1304" type="line"/>
      <point x="206" y="1312" type="line"/>
      <point x="190" y="1348" type="line"/>
    </contour>
    <contour>
      <point x="566" y="1268" type="line"/>
      <point x="606" y="1244"/>
      <point x="666" y="1180" type="qcurve"/>
      <point x="670" y="1172" type="line"/>
      <point x="686" y="1156" type="line" smooth="yes"/>
      <point x="818" y="1008"/>
      <point x="874" y="852" type="qcurve" smooth="yes"/>
      <point x="898" y="760" type="line"/>
      <point x="898" y="748" type="line"/>
      <point x="906" y="700" type="line"/>
      <point x="926" y="676" type="line"/>
      <point x="930" y="672" type="line"/>
      <point x="938" y="664" type="line"/>
      <point x="986" y="612" type="line" smooth="yes"/>
      <point x="1034" y="564"/>
      <point x="1082" y="484" type="qcurve" smooth="yes"/>
      <point x="1110" y="440" type="line"/>
      <point x="1110" y="1272" type="line"/>
      <point x="566" y="1272" type="line"/>
    </contour>
  </outline>
</glyph>
<glyph name="n" format="1">
  <advance width="297"/>
  <unicode hex="006E"/>
  <outline>
    <contour>
      <point x="-127" y="1082.5" type="line"/>
      <point x="858.6" y="1082.5" type="line"/>
      <point x="1083" y="1082.5" type="line"/>
      <point x="1175.4" y="1073.7" type="line"/>
      <point x="1201.8" y="1038.5" type="line"/>
      <point x="1237" y="959.3" type="line"/>
      <point x="1039" y="959.3" type="line"/>
      <point x="1039" y="-435.5" type="line"/>
      <point x="1017" y="-422.3" type="line" smooth="yes"/>
      <point x="986.2" y="-404.7"/>
      <point x="977.4" y="-387.1" type="qcurve" smooth="yes"/>
      <point x="968.6" y="-343.1" type="line"/>
      <point x="968.6" y="-329.9" type="line"/>
      <point x="964.2" y="-299.1" type="line"/>
      <point x="929" y="-145.1" type="line" smooth="yes"/>
      <point x="858.6" y="88.0996"/>
      <point x="695.8" y="255.3" type="qcurve" smooth="yes"/>
      <point x="572.6" y="369.7"/>
      <point x="440.6" y="378.5" type="qcurve"/>
      <point x="489" y="321.3"/>
      <point x="502.2" y="264.1" type="qcurve" smooth="yes"/>
      <point x="506.6" y="224.5"/>
      <point x="502.2" y="184.9" type="qcurve" smooth="yes"/>
      <point x="484.6" y="39.7002"/>
      <point x="339.4" y="4.5" type="qcurve"/>
      <point x="260.2" y="-4.2998" type="line" smooth="yes"/>
      <point x="189.8" y="0.0996094"/>
      <point x="137" y="39.7002" type="qcurve" smooth="yes"/>
      <point x="101.8" y="70.5"/>
      <point x="79.7998" y="105.7" type="qcurve" smooth="yes"/>
      <point x="44.5996" y="167.3"/>
      <point x="49" y="250.9" type="qcurve" smooth="yes"/>
      <point x="57.7998" y="396.1"/>
      <point x="167.8" y="484.1" type="qcurve" smooth="yes"/>
      <point x="264.6" y="567.7"/>
      <point x="387.8" y="558.9" type="qcurve" smooth="yes"/>
      <point x="603.4" y="550.1"/>
      <point x="814.6" y="259.7" type="qcurve"/>
      <point x="801.4" y="281.7" type="line" smooth="yes"/>
      <point x="805.8" y="268.5"/>
      <point x="814.6" y="259.7" type="qcurve" smooth="yes"/>
      <point x="832.2" y="228.9" type="line" smooth="yes"/>
      <point x="885" y="154.1"/>
      <point x="898.2" y="110.1" type="qcurve"/>
      <point x="902.6" y="110.1" type="line"/>
      <point x="902.6" y="959.3" type="line"/>
      <point x="211.8" y="959.3" type="line"/>
      <point x="22.5996" y="959.3" type="line"/>
      <point x="-65.4004" y="963.7" type="line"/>
      <point x="-91.7998" y="1003.3" type="line"/>
    </contour>
  </outline>
</glyph>
<glyph name="p" format="1">
  <advance width="1582"/>
  <unicode hex="0070"/>
  <outline>
    <contour>
      <point x="1144" y="1508" type="line"/>
      <point x="1268" y="1392" type="line"/>
      <point x="1392" y="1380" type="line"/>
      <point x="1412" y="1348" type="line"/>
      <point x="1448" y="1272" type="line"/>
      <point x="1268" y="1272" type="line"/>
      <point x="1268" y="4" type="line"/>
      <point x="1188" y="60" type="line"/>
      <point x="1148" y="96" type="line"/>
      <point x="1144" y="160" type="line"/>
      <point x="1144" y="288" type="line"/>
      <point x="1144" y="624" type="line"/>
      <point x="1144" y="796" type="line"/>
      <point x="1112" y="860" type="line"/>
      <point x="1032" y="972" type="line"/>
      <point x="1028" y="972" type="line"/>
      <point x="928" y="872" type="line"/>
      <point x="704" y="652" type="line"/>
      <point x="620" y="568" type="line"/>
      <point x="576" y="536" type="line"/>
      <point x="516" y="548" type="line"/>
      <point x="396" y="580" type="line"/>
      <point x="436" y="632" type="line"/>
      <point x="468" y="672" type="line" smooth="yes"/>
      <point x="528" y="748"/>
      <point x="540" y="804" type="qcurve" smooth="yes"/>
      <point x="548" y="852"/>
      <point x="524" y="892" type="qcurve" smooth="yes"/>
      <point x="484" y="948"/>
      <point x="388" y="916" type="qcurve"/>
      <point x="388" y="916" type="line"/>
      <point x="364" y="908" type="line"/>
      <point x="292" y="888" type="line"/>
      <point x="268" y="888" type="line" smooth="yes"/>
      <point x="200" y="896"/>
      <point x="180" y="952" type="qcurve" smooth="yes"/>
      <point x="176" y="1004" type="line"/>
      <point x="192" y="1076" type="line" smooth="yes"/>
      <point x="248" y="1268"/>
      <point x="472" y="1320" type="qcurve" smooth="yes"/>
      <point x="524" y="1332" type="line"/>
      <point x="556" y="1336" type="line" smooth="yes"/>
      <point x="800" y="1352"/>
      <point x="1012" y="1140" type="qcurve" smooth="yes"/>
      <point x="1016" y="1136" type="line"/>
      <point x="1036" y="1112" type="line"/>
      <point x="1052" y="1092" type="line" smooth="yes"/>
      <point x="1120" y="1008"/>
      <point x="1140" y="948" type="qcurve"/>
      <point x="1144" y="948" type="line"/>
    </contour>
    <contour>
      <point x="596" y="788" type="line"/>
      <point x="776" y="964" type="line"/>
      <point x="904" y="1092" type="line"/>
      <point x="796" y="1160" type="line" smooth="yes"/>
      <point x="716" y="1200"/>
      <point x="632" y="1208" type="qcurve" smooth="yes"/>
      <point x="492" y="1220"/>
      <point x="428" y="1128" type="qcurve" smooth="yes"/>
      <point x="412" y="1104"/>
      <point x="404" y="1052" type="qcurve"/>
      <point x="536" y="1044"/>
      <point x="584" y="872" type="qcurve" smooth="yes"/>
      <point x="584" y="864"/>
      <point x="588" y="856" type="qcurve" smooth="yes"/>
    </contour>
  </outline>
</glyph>
<glyph name="r" format="1">
  <advance width="1582"/>
  <unicode hex="0072"/>
  <outline>
    <contour>
      <point x="490" y="1384" type="line"/>
      <point x="1290" y="1384" type="line"/>
      <point x="1482" y="1384" type="line"/>
      <point x="1558" y="1376" type="line"/>
      <point x="1582" y="1344" type="line"/>
      <point x="1614" y="1272" type="line"/>
      <point x="1434" y="1272" type="line"/>
      <point x="1434" y="4" type="line"/>
      <point x="1418" y="12" type="line" smooth="yes"/>
      <point x="1390" y="28"/>
      <point x="1378" y="48" type="qcurve" smooth="yes"/>
      <point x="1374" y="64" type="line"/>
      <point x="1370" y="80" type="line"/>
      <point x="1366" y="96" type="line"/>
      <point x="1342" y="176" type="line" smooth="yes"/>
      <point x="1314" y="260"/>
      <point x="1226" y="352" type="qcurve" smooth="yes"/>
      <point x="1090" y="492"/>
      <point x="898" y="584" type="qcurve"/>
      <point x="762" y="632" type="line"/>
      <point x="734" y="640" type="line"/>
      <point x="730" y="640" type="line"/>
      <point x="726" y="640" type="line"/>
      <point x="722" y="644" type="line"/>
      <point x="682" y="656" type="line"/>
      <point x="658" y="688" type="line"/>
      <point x="642" y="708" type="line"/>
      <point x="622" y="740" type="line"/>
      <point x="582" y="808" type="line"/>
      <point x="842" y="976"/>
      <point x="1014" y="1060" type="qcurve" smooth="yes"/>
      <point x="1202" y="1136" type="line"/>
      <point x="1234" y="1148" type="line"/>
      <point x="1250" y="1152" type="line"/>
      <point x="1298" y="1172" type="line" smooth="yes"/>
      <point x="1314" y="1184"/>
      <point x="1314" y="1228" type="qcurve" smooth="yes"/>
      <point x="1314" y="1232" type="line"/>
      <point x="1314" y="1236" type="line"/>
      <point x="1314" y="1240" type="line"/>
      <point x="1310" y="1248" type="line"/>
      <point x="1310" y="1272" type="line"/>
      <point x="766" y="1272" type="line"/>
      <point x="614" y="1272" type="line"/>
      <point x="546" y="1276" type="line"/>
      <point x="522" y="1312" type="line"/>
    </contour>
    <contour>
      <point x="802" y="764" type="line"/>
      <point x="866" y="752"/>
      <point x="958" y="688" type="qcurve" smooth="yes"/>
      <point x="1046" y="636"/>
      <point x="1134" y="552" type="qcurve" smooth="yes"/>
      <point x="1222" y="468"/>
      <point x="1310" y="352" type="qcurve"/>
      <point x="1310" y="1016" type="line"/>
      <point x="1114" y="948"/>
      <point x="946" y="852" type="qcurve" smooth="yes"/>
      <point x="898" y="828" type="line"/>
      <point x="842" y="796" type="line"/>
    </contour>
    <contour>
      <point x="810" y="392" type="qcurve" smooth="yes"/>
      <point x="834" y="396" type="line"/>
      <point x="862" y="392" type="line" smooth="yes"/>
      <point x="942" y="376"/>
      <point x="950" y="280" type="qcurve" smooth="yes"/>
      <point x="950" y="188"/>
      <point x="858" y="168" type="qcurve" smooth="yes"/>
      <point x="834" y="164" type="line"/>
      <point x="806" y="168" type="line" smooth="yes"/>
      <point x="726" y="184"/>
      <point x="718" y="280" type="qcurve" smooth="yes"/>
      <point x="718" y="372"/>
    </contour>
    <contour>
      <point x="-30" y="1384" type="line"/>
      <point x="410" y="1384" type="line"/>
      <point x="526" y="1384" type="line"/>
      <point x="578" y="1376" type="line"/>
      <point x="602" y="1344" type="line"/>
      <point x="634" y="1272" type="line"/>
      <point x="606" y="1272" type="line"/>
      <point x="578" y="1272" type="line"/>
      <point x="522" y="1268" type="line"/>
      <point x="446" y="1228" type="line" smooth="yes"/>
      <point x="366" y="1176"/>
      <point x="298" y="1096" type="qcurve" smooth="yes"/>
      <point x="174" y="940"/>
      <point x="154" y="728" type="qcurve"/>
      <point x="158" y="584" type="line" smooth="yes"/>
      <point x="166" y="380"/>
      <point x="254" y="248" type="qcurve"/>
      <point x="278" y="288"/>
      <point x="310" y="316" type="qcurve" smooth="yes"/>
      <point x="366" y="340" type="line"/>
      <point x="486" y="372"/>
      <point x="554" y="268" type="qcurve" smooth="yes"/>
      <point x="598" y="200"/>
      <point x="574" y="124" type="qcurve" smooth="yes"/>
      <point x="566" y="104" type="line" smooth="yes"/>
      <point x="554" y="80"/>
      <point x="538" y="64" type="qcurve" smooth="yes"/>
      <point x="478" y="-4"/>
      <point x="378" y="8" type="qcurve" smooth="yes"/>
      <point x="290" y="16"/>
      <point x="222" y="76" type="qcurve" smooth="yes"/>
      <point x="162" y="132"/>
      <point x="122" y="240" type="qcurve" smooth="yes"/>
      <point x="106" y="292" type="line" smooth="yes"/>
      <point x="74" y="420"/>
      <point x="66" y="576" type="qcurve" smooth="yes"/>
      <point x="54" y="820"/>
      <point x="110" y="996" type="qcurve" smooth="yes"/>
      <point x="150" y="1112"/>
      <point x="254" y="1272" type="qcurve"/>
      <point x="94" y="1272" type="line"/>
      <point x="26" y="1280" type="line"/>
      <point x="2" y="1312" type="line"/>
    </contour>
  </outline>
</glyph>
<glyph name="s" format="1">
  <advance width="335"/>
  <unicode hex="0073"/>
  <outline>
    <contour>
      <point x="-122" y="1013.5" type="line"/>
      <point x="898" y="1013.5" type="line"/>
      <point x="1126" y="1013.5" type="line"/>
      <point x="1214" y="1005.5" type="line"/>
      <point x="1238" y="973.5" type="line"/>
      <point x="1270" y="901.5" type="line"/>
      <point x="1090" y="901.5" type="line"/>
      <point x="1090" y="-366.5" type="line"/>
      <point x="1050" y="-338.5" type="line"/>
      <point x="1010" y="-310.5" type="line"/>
      <point x="998" y="-298.5" type="line"/>
      <point x="994" y="-298.5" type="line"/>
      <point x="970" y="-274.5" type="line"/>
      <point x="966" y="-250.5" type="line"/>
      <point x="966" y="-234.5" type="line"/>
      <point x="966" y="-222.5" type="line"/>
      <point x="966" y="-130.5" type="line"/>
      <point x="966" y="197.5" type="line"/>
      <point x="966" y="285.5" type="line"/>
      <point x="962" y="341.5" type="line"/>
      <point x="942" y="393.5"/>
      <point x="906" y="421.5" type="qcurve" smooth="yes"/>
      <point x="898" y="429.5" type="line"/>
      <point x="890" y="433.5" type="line"/>
      <point x="846" y="457.5" type="line"/>
      <point x="802" y="465.5" type="line"/>
      <point x="758" y="457.5" type="line" smooth="yes"/>
      <point x="726" y="453.5"/>
      <point x="686" y="409.5" type="qcurve" smooth="yes"/>
      <point x="626" y="349.5"/>
      <point x="546" y="241.5" type="qcurve" smooth="yes"/>
      <point x="534" y="225.5" type="line"/>
      <point x="450" y="121.5" type="line"/>
      <point x="426" y="93.5" type="line" smooth="yes"/>
      <point x="366" y="33.5"/>
      <point x="318" y="33.5" type="qcurve" smooth="yes"/>
      <point x="290" y="41.5" type="line"/>
      <point x="262" y="61.5" type="line"/>
      <point x="250" y="69.5" type="line"/>
      <point x="130" y="185.5" type="line"/>
      <point x="94" y="221.5" type="line" smooth="yes"/>
      <point x="46" y="273.5"/>
      <point x="26" y="321.5" type="qcurve"/>
      <point x="86" y="349.5" type="line"/>
      <point x="126" y="297.5"/>
      <point x="186" y="253.5" type="qcurve" smooth="yes"/>
      <point x="202" y="241.5" type="line"/>
      <point x="242" y="221.5" type="line"/>
      <point x="290" y="237.5" type="line" smooth="yes"/>
      <point x="326" y="253.5"/>
      <point x="374" y="301.5" type="qcurve" smooth="yes"/>
      <point x="466" y="397.5" type="line"/>
      <point x="478" y="413.5" type="line"/>
      <point x="502" y="449.5" type="line"/>
      <point x="506" y="469.5" type="line"/>
      <point x="502" y="493.5" type="line"/>
      <point x="474" y="589.5" type="line"/>
      <point x="406" y="725.5"/>
      <point x="266" y="765.5" type="qcurve"/>
      <point x="202" y="773.5" type="line"/>
      <point x="114" y="789.5" type="line" smooth="yes"/>
      <point x="58" y="809.5"/>
      <point x="22" y="849.5" type="qcurve" smooth="yes"/>
      <point x="10" y="869.5" type="line"/>
      <point x="-6" y="889.5" type="line"/>
      <point x="-34" y="901.5" type="line"/>
      <point x="-38" y="901.5" type="line"/>
      <point x="-54" y="905.5" type="line"/>
      <point x="-66" y="909.5" type="line"/>
      <point x="-86" y="933.5" type="line"/>
      <point x="-90" y="941.5" type="line"/>
      <point x="-106" y="977.5" type="line"/>
    </contour>
    <contour>
      <point x="410" y="901.5" type="line"/>
      <point x="502" y="781.5"/>
      <point x="546" y="641.5" type="qcurve" smooth="yes"/>
      <point x="554" y="605.5" type="line"/>
      <point x="562" y="553.5" type="line"/>
      <point x="570" y="509.5" type="line"/>
      <point x="610" y="557.5" type="line"/>
      <point x="614" y="561.5" type="line"/>
      <point x="630" y="577.5" type="line" smooth="yes"/>
      <point x="734" y="673.5"/>
      <point x="822" y="645.5" type="qcurve" smooth="yes"/>
      <point x="862" y="625.5" type="line" smooth="yes"/>
      <point x="886" y="609.5"/>
      <point x="914" y="577.5" type="qcurve" smooth="yes"/>
      <point x="962" y="497.5" type="line"/>
      <point x="966" y="497.5" type="line"/>
      <point x="966" y="901.5" type="line"/>
    </contour>
  </outline>
</glyph>
